M48
METRIC
T01C.33
T02C.86
T03C.91
T04C1.07
T05C1.37
;LEADER: 12 
;HEADER: 
;CODE  : ASCII 
;FILE  : pdp_voltage_monitor-1-2.drl for board D:/PDP AC Voltage Monitoring & Protection PCB/allegro/#Taaaadv25768.tmp ... layers TOP and BOTTOM
;T01 Holesize 1. = 0.330000 Tolerance = +0.000000/-0.000000 PLATED MM Quantity = 6
;T02 Holesize 2. = 0.860000 Tolerance = +0.000000/-0.000000 PLATED MM Quantity = 58
;T03 Holesize 3. = 0.910000 Tolerance = +0.000000/-0.000000 PLATED MM Quantity = 34
;T04 Holesize 4. = 1.070000 Tolerance = +0.000000/-0.000000 PLATED MM Quantity = 44
;T05 Holesize 5. = 1.370000 Tolerance = +0.000000/-0.000000 PLATED MM Quantity = 3
%
G90
T01
X33346000Y19500000
X34377000Y20469000
X34247000Y21553000
X34119000Y21925000
X34069000Y22541000
X36941000Y25021000
T02
X31038000Y22800000
R06Y00254000
X31800000Y24324000
R06Y-00254000
X33976000Y23702000
R13Y-00254000
X35500000Y20400000
R13Y00254000
X36300000Y23600000
R07Y-00254000
X37062000Y21822000
R07Y00254000
T03
X29800000Y18400000
X30054000Y18400000
X31300000Y19600000
X31300000Y19854000
X34700000Y19500000
X34700000Y19754000
X34800000Y18000000
X34800000Y18254000
X36400000Y18700000
X36400000Y18954000
X37400000Y18700000
X37400000Y18954000
X38300000Y18800000
X38554000Y18800000
X38754000Y21800000
X38500000Y21800000
X37900000Y22554000
X37900000Y22300000
X37900000Y23000000
X37900000Y23254000
X37900000Y23700000
X37900000Y23954000
X37900000Y24400000
X37900000Y24654000
X37562000Y25500000
R03X-00254000
X35600000Y25654000
X35600000Y25400000
X32662000Y25500000
R03X-00254000
T04
X29684000Y21600000
R04Y00400000
X29284000Y23700000
R03Y00500000
X30300000Y25200000
R03Y-00500000
X30700000Y23200000
R04Y-00400000
X32184000Y21600000
R04Y00400000
X33446000Y25500000
X33500000Y24900000
X33246000Y24900000
X33200000Y24000000
X32946000Y24000000
X33200000Y23200000
X33200000Y22800000
R03Y-00400000
X33346000Y21200000
X33600000Y21200000
X33700000Y25500000
X34700000Y25500000
X34446000Y25500000
X35046000Y24900000
X35300000Y24900000
X36400000Y24400000
X36146000Y24400000
X36100000Y21200000
X35846000Y21200000
T05
X33100000Y18900000
R02X00254000
M30
