G04 ================== begin FILE IDENTIFICATION RECORD ==================*
G04 Layout Name:  pdp_voltage_monitor.brd*
G04 Film Name:    BOTTOM*
G04 File Format:  Gerber RS274X*
G04 File Origin:  Cadence Allegro 24.1-P001*
G04 Origin Date:  Wed Sep  9 01:48:28 2026*
G04 *
G04 Layer:  VIA CLASS/BOTTOM*
G04 Layer:  PIN/BOTTOM*
G04 Layer:  ETCH/BOTTOM*
G04 *
G04 Offset:    (0.00 0.00)*
G04 Mirror:    No*
G04 Mode:      Positive*
G04 Rotation:  0*
G04 FullContactRelief:  No*
G04 UndefLineWidth:     0.15*
G04 ================== end FILE IDENTIFICATION RECORD ====================*
%FSLAX25Y25*MOMM*%
%IR0*IPPOS*OFA0.00000B0.00000*MIA0B0*SFA1.00000B1.00000*%
%ADD16C,.61*%
%ADD10C,1.52*%
%ADD15C,1.9*%
%ADD12C,1.47*%
%ADD11C,1.65*%
%ADD14R,1.9X1.9*%
%ADD13R,1.47X1.47*%
%ADD17C,.13*%
%ADD18C,.5*%
%ADD20C,2.2*%
%ADD19C,1.82*%
%ADD22C,1.94*%
%ADD21C,1.76*%
G75*
%LPD*%
G75*
G36*
G01X29200000Y25800000D02*
X38999000D01*
Y17900000D01*
X34846000D01*
G02X34841000Y17919000I-485J10030D01*
G03X34891000Y18000000I-40610J81000D01*
G03X34800000Y18091000I-91000J0D01*
G03X34755000Y18079000I0J-90375D01*
G01X34752000Y18078000D01*
X34398000Y18432000D01*
Y20429000D01*
G03Y20509000I-21333J40000D01*
G01Y22031000D01*
G03X34392000Y22046000I-21750J0D01*
G01X34051000Y22386000D01*
X34053000Y22390000D01*
G03X34064000Y22432000I-76851J42568D01*
G03X33976000Y22344000I-88000J0D01*
G03X34022000Y22357000I0J87885D01*
G01X34356000Y22022000D01*
Y20509000D01*
G03Y20429000I21333J-40000D01*
G01Y18423000D01*
G03X34362000Y18408000I21750J0D01*
G01X34722000Y18048000D01*
X34721000Y18045000D01*
G03X34709000Y18000000I78375J-45000D01*
G03X34759000Y17919000I90610J0D01*
G02X34754000Y17900000I-4515J-8970D01*
G01X29200000D01*
Y23623000D01*
G02X29217000Y23630000I10003J-150D01*
G03X29284000Y23603000I67000J69630D01*
G03Y23797000I0J97000D01*
G03X29217000Y23770000I0J-96630D01*
G02X29200000Y23777000I-6997J7150D01*
G01Y24123000D01*
G02X29217000Y24130000I10003J-150D01*
G03X29284000Y24103000I67000J69630D01*
G03Y24297000I0J97000D01*
G03X29217000Y24270000I0J-96630D01*
G02X29200000Y24277000I-6997J7150D01*
G01Y24623000D01*
G02X29217000Y24630000I10003J-150D01*
G03X29284000Y24603000I67000J69630D01*
G03X29378000Y24675000I0J97361D01*
G01X29379000Y24679000D01*
X29740000D01*
X29791000Y24628000D01*
Y22937000D01*
X29736000Y22882000D01*
X29733000Y22884000D01*
G03X29684000Y22897000I-48542J-84121D01*
G03X29781000Y22800000I0J-97000D01*
G03X29768000Y22849000I-97121J458D01*
G01X29766000Y22852000D01*
X29827000Y22913000D01*
G03X29833000Y22928000I-15750J15000D01*
G01Y24179000D01*
X30205000D01*
X30206000Y24175000D01*
G03X30300000Y24103000I94000J25361D01*
G03X30365000Y24128000I0J97000D01*
G02X30382000Y24120000I6875J-7452D01*
G01Y23780000D01*
G02X30365000Y23772000I-10125J-548D01*
G03X30300000Y23603000I-65000J-72000D01*
G03X30389000Y23660000I0J97982D01*
G01X30405000D01*
X30673000Y23392000D01*
G03X30701000Y23380000I28000J26667D01*
G01X30963000D01*
G02X30970000Y23364000I-528J-9762D01*
G03X30950000Y23308000I68400J-56000D01*
G03X31038000Y23220000I88000J0D01*
G03X31126000Y23304000I0J88095D01*
G02X31143000Y23310000I9870J-880D01*
G01X31438000Y23016000D01*
Y19793000D01*
X31330000Y19686000D01*
X31327000Y19687000D01*
G03X31300000Y19691000I-26692J-87046D01*
G03X31391000Y19600000I0J-91000D01*
G03X31387000Y19627000I-91046J308D01*
G01X31386000Y19630000D01*
X31505000Y19749000D01*
G03X31516000Y19777000I-28286J27273D01*
G01Y23032000D01*
G03X31505000Y23060000I-39286J727D01*
G01X31117000Y23448000D01*
G03X31089000Y23460000I-28000J-26667D01*
G01X30717000D01*
X30460000Y23716000D01*
Y25079000D01*
G03X30449000Y25107000I-39286J727D01*
G01X30391000Y25165000D01*
G03X30397000Y25200000I-91231J33654D01*
G03X30300000Y25103000I-97000J0D01*
G03X30335000Y25109000I1346J97231D01*
G01X30382000Y25063000D01*
Y24780000D01*
G02X30365000Y24772000I-10125J-548D01*
G03Y24628000I-65000J-72000D01*
G02X30382000Y24620000I6875J-7452D01*
G01Y24280000D01*
G02X30365000Y24272000I-10125J-548D01*
G03X30300000Y24297000I-65000J-72000D01*
G03X30206000Y24225000I0J-97361D01*
G01X30205000Y24221000D01*
X29833000D01*
Y24637000D01*
G03X29827000Y24652000I-21750J0D01*
G01X29764000Y24715000D01*
G03X29749000Y24721000I-15000J-15750D01*
G01X29379000D01*
X29378000Y24725000D01*
G03X29284000Y24797000I-94000J-25361D01*
G03X29217000Y24770000I0J-96630D01*
G02X29200000Y24777000I-6997J7150D01*
G01Y25123000D01*
G02X29217000Y25130000I10003J-150D01*
G03X29284000Y25103000I67000J69630D01*
G03Y25297000I0J97000D01*
G03X29217000Y25270000I0J-96630D01*
G02X29200000Y25277000I-6997J7150D01*
G01Y25800000D01*
G37*
%LPC*%
G75*
G36*
G01X31712000Y22726000D02*
Y22874000D01*
G02X31726000Y22888000I14500J-500D01*
G01X31874000D01*
G02X31888000Y22874000I-500J-14500D01*
G01Y22726000D01*
G02X31874000Y22712000I-14500J500D01*
G01X31726000D01*
G02X31712000Y22726000I500J14500D01*
G37*
G36*
G01X32990000Y18805000D02*
Y18995000D01*
G02X33005000Y19010000I15000J0D01*
G01X33195000D01*
G02X33210000Y18995000I0J-15000D01*
G01Y18805000D01*
G02X33195000Y18790000I-15000J0D01*
G01X33005000D01*
G02X32990000Y18805000I0J15000D01*
G37*
G36*
G01X33302000Y21979000D02*
X33295000D01*
X33294000Y21975000D01*
G02X33200000Y21903000I-94000J25361D01*
G02Y22097000I0J97000D01*
G02X33289000Y22039000I0J-97284D01*
G03X33295000Y22037000I4174J2522D01*
G02X33302000Y22038000I6440J-20080D01*
G01X34131000D01*
G02X34146000Y22032000I0J-21750D01*
G01X34262000Y21916000D01*
G02X34268000Y21901000I-15750J-15000D01*
G01Y21593000D01*
G02X34292000Y21553000I-21333J-40000D01*
G02X34202000I-45000J0D01*
G02X34226000Y21593000I45333J0D01*
G01Y21892000D01*
X34122000Y21996000D01*
X34052000D01*
G03X34044000Y21980000I-120J-9940D01*
G02X34064000Y21924000I-68400J-56000D01*
G02X33888000I-88000J0D01*
G02X33908000Y21980000I88400J0D01*
G03X33900000Y21996000I-7880J6060D01*
G01X33323000D01*
X33322000Y21993000D01*
G02X33302000Y21979000I-20000J7286D01*
G37*
G36*
G01X30679000Y22495000D02*
Y22705000D01*
X30675000Y22706000D01*
G02X30603000Y22800000I25361J94000D01*
G02X30797000I97000J0D01*
G02X30725000Y22706000I-97361J0D01*
G01X30721000Y22705000D01*
Y22495000D01*
X30725000Y22494000D01*
G02X30797000Y22400000I-25361J-94000D01*
G02X30603000I-97000J0D01*
G02X30675000Y22494000I97361J0D01*
G01X30679000Y22495000D01*
G37*
G36*
G01X32925000Y23208000D02*
Y23905000D01*
X32921000Y23906000D01*
G02X32849000Y24000000I25361J94000D01*
G02X33043000I97000J0D01*
G02X32971000Y23906000I-97361J0D01*
G01X32967000Y23905000D01*
Y23217000D01*
X33930000Y22253000D01*
G02X33976000Y22266000I46000J-74885D01*
G02X33888000Y22178000I0J-88000D01*
G02X33899000Y22220000I87851J-568D01*
G01X33901000Y22224000D01*
X33314000Y22810000D01*
G03X33297000Y22803000I-7118J-6857D01*
G02X33103000Y22800000I-96977J-3000D01*
G02X33203000Y22897000I97045J0D01*
G03X33210000Y22914000I143J9882D01*
G01X32931000Y23193000D01*
G02X32925000Y23208000I15750J15000D01*
G37*
G36*
G01X31017000Y24156000D02*
Y24238000D01*
X31013000Y24240000D01*
G02X30950000Y24324000I24500J84000D01*
G02X31126000I88000J0D01*
G02X31063000Y24240000I-87500J0D01*
G01X31059000Y24238000D01*
Y24156000D01*
X31063000Y24154000D01*
G02X31126000Y24070000I-24500J-84000D01*
G02X30950000I-88000J0D01*
G02X31013000Y24154000I87500J0D01*
G01X31017000Y24156000D01*
G37*
G36*
G01X31779000D02*
Y24238000D01*
X31775000Y24240000D01*
G02X31712000Y24324000I24500J84000D01*
G02X31888000I88000J0D01*
G02X31825000Y24240000I-87500J0D01*
G01X31821000Y24238000D01*
Y24156000D01*
X31825000Y24154000D01*
G02X31888000Y24070000I-24500J-84000D01*
G02X31712000I-88000J0D01*
G02X31775000Y24154000I87500J0D01*
G01X31779000Y24156000D01*
G37*
G36*
G01X36379000Y23688000D02*
Y24305000D01*
X36375000Y24306000D01*
G02X36303000Y24400000I25361J94000D01*
G02X36497000I97000J0D01*
G02X36425000Y24306000I-97361J0D01*
G01X36421000Y24305000D01*
Y21300000D01*
G02X36415000Y21285000I-21750J0D01*
G01X35588000Y20458000D01*
Y20326000D01*
G02X35574000Y20312000I-14500J500D01*
G01X35426000D01*
G02X35412000Y20326000I500J14500D01*
G01Y20474000D01*
G02X35426000Y20488000I14500J-500D01*
G01X35558000D01*
X36379000Y21309000D01*
Y21752000D01*
G03X36362000Y21760000I-10057J692D01*
G02X36300000Y21734000I-62000J60923D01*
G02Y21910000I0J88000D01*
G02X36362000Y21884000I0J-86923D01*
G03X36379000Y21892000I6943J7308D01*
G01Y22006000D01*
G03X36362000Y22014000I-10057J692D01*
G02X36300000Y21988000I-62000J60923D01*
G02Y22164000I0J88000D01*
G02X36362000Y22138000I0J-86923D01*
G03X36379000Y22146000I6943J7308D01*
G01Y22260000D01*
G03X36362000Y22268000I-10057J692D01*
G02X36300000Y22242000I-62000J60923D01*
G02Y22418000I0J88000D01*
G02X36362000Y22392000I0J-86923D01*
G03X36379000Y22400000I6943J7308D01*
G01Y22514000D01*
G03X36362000Y22522000I-10057J692D01*
G02X36300000Y22496000I-62000J60923D01*
G02Y22672000I0J88000D01*
G02X36362000Y22646000I0J-86923D01*
G03X36379000Y22654000I6943J7308D01*
G01Y22768000D01*
G03X36362000Y22776000I-10057J692D01*
G02X36300000Y22750000I-62000J60923D01*
G02Y22926000I0J88000D01*
G02X36362000Y22900000I0J-86923D01*
G03X36379000Y22908000I6943J7308D01*
G01Y23022000D01*
G03X36362000Y23030000I-10057J692D01*
G02X36300000Y23004000I-62000J60923D01*
G02Y23180000I0J88000D01*
G02X36362000Y23154000I0J-86923D01*
G03X36379000Y23162000I6943J7308D01*
G01Y23276000D01*
G03X36362000Y23284000I-10057J692D01*
G02X36300000Y23258000I-62000J60923D01*
G02Y23434000I0J88000D01*
G02X36362000Y23408000I0J-86923D01*
G03X36379000Y23416000I6943J7308D01*
G01Y23512000D01*
X36226000D01*
G02X36212000Y23526000I500J14500D01*
G01Y23674000D01*
G02X36226000Y23688000I14500J-500D01*
G01X36379000D01*
G37*
G36*
G01X36902000Y21943000D02*
Y24999000D01*
G02X36896000Y25021000I38885J22423D01*
G02X36986000I45000J0D01*
G02X36980000Y24999000I-44885J423D01*
G01Y23667000D01*
G03X36998000Y23660000I10220J-362D01*
G02X37062000Y23688000I64000J-59143D01*
G02Y23512000I0J-88000D01*
G02X36998000Y23540000I0J87143D01*
G03X36980000Y23533000I-7780J-6638D01*
G01Y23413000D01*
G03X36998000Y23406000I10220J-362D01*
G02X37062000Y23434000I64000J-59143D01*
G02Y23258000I0J-88000D01*
G02X36998000Y23286000I0J87143D01*
G03X36980000Y23279000I-7780J-6638D01*
G01Y23159000D01*
G03X36998000Y23152000I10220J-362D01*
G02X37062000Y23180000I64000J-59143D01*
G02Y23004000I0J-88000D01*
G02X36998000Y23032000I0J87143D01*
G03X36980000Y23025000I-7780J-6638D01*
G01Y22905000D01*
G03X36998000Y22898000I10220J-362D01*
G02X37062000Y22926000I64000J-59143D01*
G02Y22750000I0J-88000D01*
G02X36998000Y22778000I0J87143D01*
G03X36980000Y22771000I-7780J-6638D01*
G01Y22651000D01*
G03X36998000Y22644000I10220J-362D01*
G02X37062000Y22672000I64000J-59143D01*
G02Y22496000I0J-88000D01*
G02X36998000Y22524000I0J87143D01*
G03X36980000Y22517000I-7780J-6638D01*
G01Y22397000D01*
G03X36998000Y22390000I10220J-362D01*
G02X37062000Y22418000I64000J-59143D01*
G02Y22242000I0J-88000D01*
G02X36998000Y22270000I0J87143D01*
G03X36980000Y22263000I-7780J-6638D01*
G01Y22143000D01*
G03X36998000Y22136000I10220J-362D01*
G02X37062000Y22164000I64000J-59143D01*
G02Y21988000I0J-88000D01*
G02X36998000Y22016000I0J87143D01*
G03X36980000Y22009000I-7780J-6638D01*
G01Y21959000D01*
X37034000Y21906000D01*
X37037000D01*
G02X37062000Y21910000I26229J-83803D01*
G02X36974000Y21822000I0J-88000D01*
G02X36978000Y21847000I87803J-1229D01*
G01Y21850000D01*
X36913000Y21915000D01*
G02X36902000Y21943000I28286J27273D01*
G37*
G36*
G01X32241000Y25617000D02*
G02X32256000Y25623000I15000J-15750D01*
G01X34830000D01*
G02X34845000Y25617000I0J-21750D01*
G01X35213000Y25249000D01*
G02X35219000Y25234000I-15750J-15000D01*
G01Y24980000D01*
G03X35236000Y24973000I9948J18D01*
G02X35300000Y24997000I64000J-73333D01*
G02Y24803000I0J-97000D01*
G02X35236000Y24827000I0J97333D01*
G03X35219000Y24820000I-7052J-7018D01*
G01Y21219000D01*
X35454000Y20983000D01*
G02X35500000Y20996000I46000J-74885D01*
G02X35412000Y20908000I0J-88000D01*
G02X35423000Y20950000I87851J-568D01*
G01X35425000Y20954000D01*
X35183000Y21195000D01*
G02X35177000Y21210000I15750J15000D01*
G01Y25225000D01*
X34821000Y25581000D01*
X34780000D01*
G03X34773000Y25564000I18J-9948D01*
G02X34797000Y25500000I-73333J-64000D01*
G02X34603000I-97000J0D01*
G02X34627000Y25564000I97333J0D01*
G03X34620000Y25581000I-7018J7052D01*
G01X34526000D01*
G03X34519000Y25564000I18J-9948D01*
G02X34543000Y25500000I-73333J-64000D01*
G02X34349000I-97000J0D01*
G02X34373000Y25564000I97333J0D01*
G03X34366000Y25581000I-7018J7052D01*
G01X33780000D01*
G03X33773000Y25564000I18J-9948D01*
G02X33797000Y25500000I-73333J-64000D01*
G02X33603000I-97000J0D01*
G02X33627000Y25564000I97333J0D01*
G03X33620000Y25581000I-7018J7052D01*
G01X33526000D01*
G03X33519000Y25564000I18J-9948D01*
G02X33543000Y25500000I-73333J-64000D01*
G02X33349000I-97000J0D01*
G02X33373000Y25564000I97333J0D01*
G03X33366000Y25581000I-7018J7052D01*
G01X32734000D01*
G03X32727000Y25564000I-107J-9897D01*
G02X32753000Y25500000I-65769J-64000D01*
G02X32571000I-91000J0D01*
G02X32597000Y25564000I91769J0D01*
G03X32590000Y25581000I-6893J7103D01*
G01X32480000D01*
G03X32473000Y25564000I-107J-9897D01*
G02X32499000Y25500000I-65769J-64000D01*
G02X32433000Y25412000I-91667J0D01*
G01X32429000Y25411000D01*
Y24845000D01*
X33089000Y24185000D01*
G02X33095000Y24170000I-15750J-15000D01*
G01Y24049000D01*
G03X33114000Y24045000I9952J146D01*
G02X33200000Y24097000I86000J-45115D01*
G02X33297000Y24000000I0J-97000D01*
G02X33248000Y23916000I-96500J0D01*
G03X33253000Y23897000I4576J-8954D01*
G01X34880000D01*
G02X34895000Y23891000I0J-21750D01*
G01X35150000Y23636000D01*
G02X35156000Y23621000I-15750J-15000D01*
G01Y21028000D01*
X35454000Y20729000D01*
G02X35500000Y20742000I46000J-74885D01*
G02X35412000Y20654000I0J-88000D01*
G02X35423000Y20696000I87851J-568D01*
G01X35425000Y20700000D01*
X35147000Y20977000D01*
G03X35130000Y20970000I-7101J-6897D01*
G01Y20425000D01*
X35253000Y20302000D01*
X36174000D01*
X37237000Y21365000D01*
Y25443000D01*
G02X37217000Y25500000I71225J57000D01*
G02X37308000Y25409000I91000J0D01*
G02X37291000Y25411000I2060J90758D01*
G03X37279000Y25401000I-1901J-9919D01*
G01Y21356000D01*
G02X37273000Y21341000I-21750J0D01*
G01X36198000Y20266000D01*
G02X36183000Y20260000I-15000J15750D01*
G01X35244000D01*
G02X35229000Y20266000I0J21750D01*
G01X35094000Y20401000D01*
G02X35088000Y20416000I15750J15000D01*
G01Y21492000D01*
X34082000Y22498000D01*
X34080000Y22497000D01*
G02X34069000Y22496000I-9557J44131D01*
G02X34114000Y22541000I0J45000D01*
G02X34113000Y22530000I-45131J-1443D01*
G01X34112000Y22528000D01*
X35097000Y21543000D01*
G03X35114000Y21550000I7101J6897D01*
G01Y23612000D01*
X34871000Y23855000D01*
X33098000D01*
G02X33083000Y23861000I0J21750D01*
G01X33059000Y23885000D01*
G02X33053000Y23900000I15750J15000D01*
G01Y24161000D01*
X32393000Y24821000D01*
G02X32387000Y24836000I15750J15000D01*
G01Y25411000D01*
X32383000Y25412000D01*
G02X32317000Y25500000I25667J88000D01*
G02X32343000Y25564000I91769J0D01*
G03X32336000Y25581000I-6893J7103D01*
G01X32265000D01*
X32232000Y25548000D01*
X32233000Y25545000D01*
G02X32245000Y25500000I-78375J-45000D01*
G02X32154000Y25591000I-91000J0D01*
G02X32199000Y25579000I0J-90375D01*
G01X32202000Y25578000D01*
X32241000Y25617000D01*
G37*
G54D20*
X33354000Y18900000D03*
X33608000D03*
G54D19*
X34800000Y18254000D03*
X29800000Y18400000D03*
X30054000D03*
X36400000Y18954000D03*
Y18700000D03*
X37400000Y18954000D03*
Y18700000D03*
X38554000Y18800000D03*
X38300000D03*
X31300000Y19854000D03*
X34700000Y19754000D03*
Y19500000D03*
X38754000Y21800000D03*
X38500000D03*
X37900000Y22554000D03*
Y22300000D03*
Y23254000D03*
Y23000000D03*
Y23700000D03*
Y23954000D03*
Y24400000D03*
Y24654000D03*
X31900000Y25500000D03*
X35600000Y25654000D03*
Y25400000D03*
X37054000Y25500000D03*
X36800000D03*
X37562000D03*
G54D22*
X33346000Y21200000D03*
X33600000D03*
X35846000D03*
X36100000D03*
X29684000Y21600000D03*
Y22000000D03*
X30700000Y21600000D03*
Y22000000D03*
X32184000Y21600000D03*
Y22000000D03*
X33200000Y21600000D03*
X29684000Y22400000D03*
X32184000D03*
Y22800000D03*
X33200000Y22400000D03*
X29684000Y23200000D03*
X30700000D03*
X32184000D03*
X33200000D03*
X36146000Y24400000D03*
X33246000Y24900000D03*
X33500000D03*
X35046000D03*
G54D21*
X33976000Y20400000D03*
Y21162000D03*
Y20908000D03*
Y20654000D03*
X35500000Y21162000D03*
X33976000Y21670000D03*
Y21416000D03*
X35500000D03*
Y21670000D03*
Y21924000D03*
X31038000Y22800000D03*
X33976000Y22686000D03*
X35500000Y22178000D03*
Y22432000D03*
Y22686000D03*
X31038000Y23562000D03*
Y23054000D03*
X31800000D03*
Y23308000D03*
Y23562000D03*
X33976000Y23448000D03*
Y23194000D03*
Y22940000D03*
X35500000D03*
Y23194000D03*
Y23448000D03*
X31038000Y23816000D03*
X31800000D03*
X33976000Y23702000D03*
X35500000D03*
%LPD*%
G75*
G54D10*
X29800000Y18400000D03*
X30054000D03*
X31300000Y19854000D03*
Y19600000D03*
X31900000Y25500000D03*
X32662000D03*
X32408000D03*
X32154000D03*
X34800000Y18254000D03*
Y18000000D03*
X34700000Y19754000D03*
Y19500000D03*
X35600000Y25654000D03*
Y25400000D03*
X36400000Y18954000D03*
Y18700000D03*
X37400000Y18954000D03*
Y18700000D03*
X37308000Y25500000D03*
X37054000D03*
X36800000D03*
X37900000Y22554000D03*
Y22300000D03*
Y23254000D03*
Y23000000D03*
Y23700000D03*
Y23954000D03*
Y24400000D03*
Y24654000D03*
X37562000Y25500000D03*
X38554000Y18800000D03*
X38300000D03*
X38754000Y21800000D03*
X38500000D03*
G54D11*
X29684000Y21600000D03*
Y22000000D03*
Y22800000D03*
Y22400000D03*
X29284000Y23700000D03*
X29684000Y23200000D03*
X29284000Y24200000D03*
Y24700000D03*
Y25200000D03*
X30300000Y23700000D03*
Y24200000D03*
Y24700000D03*
Y25200000D03*
X30700000Y21600000D03*
Y22000000D03*
Y22800000D03*
Y22400000D03*
Y23200000D03*
X32184000Y22000000D03*
Y21600000D03*
Y22400000D03*
Y22800000D03*
Y23200000D03*
X33346000Y21200000D03*
X33600000D03*
X33200000Y22000000D03*
Y21600000D03*
Y22400000D03*
Y22800000D03*
Y23200000D03*
X32946000Y24000000D03*
X33200000D03*
X33246000Y24900000D03*
X33500000D03*
X33446000Y25500000D03*
X33700000D03*
X35046000Y24900000D03*
X34446000Y25500000D03*
X34700000D03*
X35846000Y21200000D03*
X35300000Y24900000D03*
X36100000Y21200000D03*
X36146000Y24400000D03*
X36400000D03*
G54D12*
X31038000Y22800000D03*
Y23562000D03*
Y23308000D03*
Y23054000D03*
Y24324000D03*
Y24070000D03*
Y23816000D03*
X31800000Y23054000D03*
Y23308000D03*
Y23562000D03*
Y23816000D03*
Y24070000D03*
Y24324000D03*
X33976000Y20400000D03*
Y21162000D03*
Y20908000D03*
Y20654000D03*
Y21924000D03*
Y21670000D03*
Y21416000D03*
Y22686000D03*
Y22432000D03*
Y22178000D03*
Y23448000D03*
Y23194000D03*
Y22940000D03*
Y23702000D03*
X35500000Y20654000D03*
Y20908000D03*
Y21162000D03*
Y21416000D03*
Y21670000D03*
Y21924000D03*
Y22178000D03*
Y22432000D03*
Y22686000D03*
Y22940000D03*
Y23194000D03*
Y23448000D03*
Y23702000D03*
X36300000Y22076000D03*
Y21822000D03*
Y22838000D03*
Y22584000D03*
Y22330000D03*
Y23346000D03*
Y23092000D03*
X37062000Y21822000D03*
Y22076000D03*
Y22330000D03*
Y22584000D03*
Y22838000D03*
Y23092000D03*
Y23346000D03*
Y23600000D03*
G54D13*
X31800000Y22800000D03*
X35500000Y20400000D03*
X36300000Y23600000D03*
G54D14*
X33100000Y18900000D03*
G54D15*
X33354000D03*
X33608000D03*
G54D16*
X33346000Y19500000D03*
X34119000Y21925000D03*
X34247000Y21553000D03*
X34069000Y22541000D03*
X34377000Y20469000D03*
X36941000Y25021000D03*
G54D17*
G01X29812000Y24200000D02*
Y22928000D01*
X29684000Y22800000D01*
G01X29284000Y24700000D02*
X29749000D01*
X29812000Y24637000D01*
Y24200000D01*
G01D02*
X30300000D01*
G01X30700000Y22800000D02*
Y22400000D01*
G01X31038000Y24324000D02*
Y24070000D01*
G01X31800000Y24324000D02*
Y24070000D01*
G01X32408000Y25500000D02*
Y24836000D01*
X33074000Y24170000D01*
Y23900000D01*
X33098000Y23876000D01*
X34880000D01*
X35135000Y23621000D01*
Y21019000D01*
X35500000Y20654000D01*
G01X32154000Y25500000D02*
X32256000Y25602000D01*
X34830000D01*
X35198000Y25234000D01*
Y21210000D01*
X35500000Y20908000D01*
G01X33200000Y22000000D02*
X33302000D01*
Y22017000D01*
X34131000D01*
X34247000Y21901000D01*
Y21553000D01*
G01X32946000Y24000000D02*
Y23208000D01*
X33976000Y22178000D01*
G01Y22432000D02*
X34377000Y22031000D01*
Y20469000D01*
G01X37308000Y25500000D02*
X37258000Y25450000D01*
Y21356000D01*
X36183000Y20281000D01*
X35244000D01*
X35109000Y20416000D01*
Y21501000D01*
X34069000Y22541000D01*
G01X34377000Y20469000D02*
Y18423000D01*
X34800000Y18000000D01*
G01X36400000Y24400000D02*
Y21300000D01*
X35500000Y20400000D01*
G54D18*
G01X29563000Y23200000D02*
Y22121000D01*
G01D02*
X29684000Y22000000D01*
G01Y21898000D02*
Y22000000D01*
G01D02*
Y22102000D01*
G01X29582000Y22000000D02*
X29684000D01*
G01D02*
X29786000D01*
G01X29684000Y23200000D02*
X29563000D01*
G01D02*
Y23921000D01*
G01X29684000Y23098000D02*
Y23200000D01*
G01D02*
Y23302000D01*
G01X29563000Y23921000D02*
X29284000Y24200000D01*
G01Y24098000D02*
Y24200000D01*
G01D02*
Y24302000D01*
G01Y24200000D02*
X29386000D01*
G01X30054000Y18305000D02*
Y18400000D01*
G01X31186000Y19532000D02*
X30054000Y18400000D01*
G01D02*
Y18495000D01*
G01X29959000Y18400000D02*
X30054000D01*
G01D02*
X30149000D01*
G01X30421000Y23700000D02*
X30701000Y23420000D01*
X31089000D01*
X31477000Y23032000D01*
Y19777000D01*
X31300000Y19600000D01*
G01X30300000Y23700000D02*
X30421000D01*
G01D02*
Y25079000D01*
X30300000Y25200000D01*
G01Y24598000D02*
Y24700000D01*
G01D02*
Y24802000D01*
G01X30198000Y24700000D02*
X30300000D01*
G01X31186000Y19854000D02*
Y19532000D01*
G01X31300000Y19854000D02*
X31186000D01*
G01D02*
X30700000Y20340000D01*
G01D02*
Y21600000D01*
G01D02*
Y21702000D01*
G01X30598000Y21600000D02*
X30700000D01*
G01D02*
X30802000D01*
G01X31038000Y23562000D02*
X31800000D01*
G01X31038000Y23215000D02*
Y23308000D01*
G01X30945000D02*
X31038000D01*
G01Y23562000D02*
Y23655000D01*
G01X30945000Y23562000D02*
X31038000D01*
G01X30700000Y23098000D02*
Y23200000D01*
G01D02*
Y23302000D01*
G01X30598000Y23200000D02*
X30700000D01*
G01D02*
X30802000D01*
G01X31038000Y23723000D02*
Y23816000D01*
G01D02*
Y23909000D01*
G01X30945000Y23816000D02*
X31038000D01*
G01D02*
X31131000D01*
G01X31300000Y19759000D02*
Y19854000D01*
G01D02*
Y19949000D01*
G01Y19854000D02*
X31395000D01*
G01X31800000Y23469000D02*
Y23562000D01*
G01D02*
Y23655000D01*
G01Y23562000D02*
X31893000D01*
G01X31900000Y25500000D02*
X31912000Y25488000D01*
Y23928000D01*
G01D02*
X31800000Y23816000D01*
G01Y23723000D02*
Y23816000D01*
G01D02*
Y23909000D01*
G01X31707000Y23816000D02*
X31800000D01*
G01D02*
X31893000D01*
G01X31900000Y25405000D02*
Y25500000D01*
G01D02*
Y25595000D01*
G01X31805000Y25500000D02*
X31900000D01*
G01D02*
X31995000D01*
G01X32184000Y22000000D02*
Y21600000D01*
G01Y22000000D02*
Y22102000D01*
G01X32082000Y22000000D02*
X32184000D01*
G01D02*
X32286000D01*
G01X32184000Y21498000D02*
Y21600000D01*
G01X32082000D02*
X32184000D01*
G01D02*
X32286000D01*
G01X33354000Y18900000D02*
Y19492000D01*
G01Y18786000D02*
Y18900000D01*
G01X33240000D02*
X33354000D01*
G01D02*
X33468000D01*
G01X33494000D02*
X33608000D01*
G01X33346000Y19500000D02*
Y21200000D01*
G01X33354000Y19492000D02*
X33346000Y19500000D01*
G01Y21200000D02*
Y21302000D01*
G01X33244000Y21200000D02*
X33346000D01*
G01D02*
X33448000D01*
G01X33498000D02*
X33600000D01*
G01X33200000Y21498000D02*
Y21600000D01*
G01D02*
Y21702000D01*
G01X33098000Y21600000D02*
X33200000D01*
G01D02*
X33302000D01*
G01X33200000Y24000000D02*
X33210000Y24010000D01*
Y24864000D01*
X33246000Y24900000D01*
G01X33200000Y24000000D02*
Y24102000D01*
G01Y24000000D02*
X33302000D01*
G01X33246000Y24900000D02*
X33700000Y25354000D01*
G01X33246000Y24798000D02*
Y24900000D01*
G01D02*
Y25002000D01*
G01X33144000Y24900000D02*
X33246000D01*
G01D02*
X33348000D01*
G01X33608000Y18786000D02*
Y18900000D01*
G01D02*
Y19014000D01*
G01Y18900000D02*
X33722000D01*
G01X33600000Y21548000D02*
Y21200000D01*
G01Y21098000D02*
Y21200000D01*
G01D02*
X33702000D01*
G01X34119000Y21925000D02*
X33977000D01*
X33976000Y21924000D01*
G01D02*
X33600000Y21548000D01*
G01X33976000Y21831000D02*
Y21924000D01*
G01X33883000D02*
X33976000D01*
G01D02*
X34069000D01*
G01X33700000Y25354000D02*
Y25500000D01*
G01X33598000D02*
X33700000D01*
G01D02*
X33802000D01*
G01X34801000Y18674000D02*
Y18255000D01*
X34800000Y18254000D01*
G01Y18159000D02*
Y18254000D01*
G01D02*
Y18349000D01*
G01X34705000Y18254000D02*
X34800000D01*
G01D02*
X34895000D01*
G01X34700000Y19500000D02*
Y18775000D01*
G01X34801000Y18674000D02*
X34827000Y18700000D01*
G01X34700000Y18775000D02*
X34801000Y18674000D01*
G01X34827000Y18700000D02*
X36400000D01*
G01X34700000Y19659000D02*
Y19754000D01*
G01D02*
Y19849000D01*
G01X34605000Y19754000D02*
X34700000D01*
G01D02*
X34795000D01*
G01X34700000Y19500000D02*
Y19595000D01*
G01X34605000Y19500000D02*
X34700000D01*
G01D02*
X34795000D01*
G01X34700000Y25246000D02*
X35046000Y24900000D01*
G01Y24798000D02*
Y24900000D01*
G01D02*
Y25002000D01*
G01X34944000Y24900000D02*
X35046000D01*
G01D02*
X35148000D01*
G01X34700000Y25500000D02*
Y25246000D01*
G01X34446000Y25398000D02*
Y25500000D01*
G01X34344000D02*
X34446000D01*
G01D02*
X34548000D01*
G01X34598000D02*
X34700000D01*
G01D02*
X34802000D01*
G01X35744000Y21200000D02*
X35846000D01*
G01X36100000Y21924000D02*
X35500000D01*
G01Y21831000D02*
Y21924000D01*
G01D02*
Y22017000D01*
G01X35407000Y21924000D02*
X35500000D01*
G01Y22085000D02*
Y22178000D01*
G01D02*
Y22271000D01*
G01X35407000Y22178000D02*
X35500000D01*
G01D02*
X35593000D01*
G01X35600000Y25200000D02*
X35300000Y24900000D01*
G01Y24798000D02*
Y24900000D01*
G01D02*
Y25002000D01*
G01Y24900000D02*
X35402000D01*
G01X35600000Y25400000D02*
Y25200000D01*
G01Y25559000D02*
Y25654000D01*
G01D02*
Y25749000D01*
G01X35505000Y25654000D02*
X35600000D01*
G01D02*
X35695000D01*
G01X35600000Y25400000D02*
Y25495000D01*
G01X35505000Y25400000D02*
X35600000D01*
G01D02*
X35695000D01*
G01X36400000Y18605000D02*
Y18700000D01*
G01D02*
Y18795000D01*
G01Y18700000D02*
X36495000D01*
G01X36400000Y18859000D02*
Y18954000D01*
G01D02*
Y19049000D01*
G01X36305000Y18954000D02*
X36400000D01*
G01D02*
X36495000D01*
G01X36100000Y21822000D02*
Y21200000D01*
G01X35846000Y21098000D02*
Y21200000D01*
G01D02*
Y21302000D01*
G01Y21200000D02*
X35948000D01*
G01X36100000Y21098000D02*
Y21200000D01*
G01X35998000D02*
X36100000D01*
G01D02*
X36202000D01*
G01X36300000Y21822000D02*
X36100000D01*
G01D02*
Y21924000D01*
G01D02*
Y22384000D01*
G01X36300000Y21729000D02*
Y21822000D01*
G01D02*
Y21915000D01*
G01X36100000Y22384000D02*
X36300000Y22584000D01*
G01Y22491000D02*
Y22584000D01*
G01D02*
Y22677000D01*
G01X36207000Y22584000D02*
X36300000D01*
G01X36941000Y25021000D02*
Y21943000D01*
X37062000Y21822000D01*
G01X37054000Y25405000D02*
Y25500000D01*
G01D02*
Y25595000D01*
G01X36959000Y25500000D02*
X37054000D01*
G01D02*
X37149000D01*
G01X36800000Y25405000D02*
Y25500000D01*
G01D02*
Y25595000D01*
G01X36705000Y25500000D02*
X36800000D01*
G01D02*
X36895000D01*
G01X37900000Y22554000D02*
Y23000000D01*
G01Y22459000D02*
Y22554000D01*
G01X37805000D02*
X37900000D01*
G01D02*
X37995000D01*
G01X37786000Y23700000D02*
Y23114000D01*
G01D02*
X37900000Y23000000D01*
G01D02*
Y23095000D01*
G01X37805000Y23000000D02*
X37900000D01*
G01D02*
X37995000D01*
G01X37900000Y23605000D02*
Y23700000D01*
G01D02*
X37786000D01*
G01D02*
Y24286000D01*
G01D02*
X37900000Y24400000D01*
G01Y23700000D02*
Y23795000D01*
G01Y23700000D02*
X37995000D01*
G01X37900000Y24305000D02*
Y24400000D01*
G01D02*
Y24495000D01*
G01X37805000Y24400000D02*
X37900000D01*
G01D02*
X37995000D01*
G01X38554000Y18705000D02*
Y18800000D01*
G01D02*
Y18895000D01*
G01X38459000Y18800000D02*
X38554000D01*
G01D02*
X38649000D01*
M02*
