G04 ================== begin FILE IDENTIFICATION RECORD ==================*
G04 Layout Name:  pdp_voltage_monitor.brd*
G04 Film Name:    NCLEGEND-1-2*
G04 File Format:  Gerber RS274X*
G04 File Origin:  Cadence Allegro 24.1-P001*
G04 Origin Date:  Wed Sep  9 01:54:09 2026*
G04 *
G04 Layer:  MANUFACTURING/NCLEGEND-1-2*
G04 Layer:  BOARD GEOMETRY/CUTOUT*
G04 Layer:  BOARD GEOMETRY/DESIGN_OUTLINE*
G04 Layer:  BOARD GEOMETRY/DIMENSION*
G04 *
G04 Offset:    (0.00 0.00)*
G04 Mirror:    No*
G04 Mode:      Positive*
G04 Rotation:  0*
G04 FullContactRelief:  No*
G04 UndefLineWidth:     0.15*
G04 ================== end FILE IDENTIFICATION RECORD ====================*
%FSLAX25Y25*MOMM*%
%IR0*IPPOS*OFA0.00000B0.00000*MIA0B0*SFA1.00000B1.00000*%
%AMMACRO14*
1,1,.15,.635,0.0*
20,1,.15,.635,0.0,.625353,-.110267,0.0*
1,1,.15,.625353,-.110267*
20,1,.15,.625353,-.110267,.596705,-.217183,0.0*
1,1,.15,.596705,-.217183*
20,1,.15,.596705,-.217183,.549926,-.3175,0.0*
1,1,.15,.549926,-.3175*
20,1,.15,.549926,-.3175,.486438,-.40817,0.0*
1,1,.15,.486438,-.40817*
20,1,.15,.486438,-.40817,.40817,-.486438,0.0*
1,1,.15,.40817,-.486438*
20,1,.15,.40817,-.486438,.3175,-.549926,0.0*
1,1,.15,.3175,-.549926*
20,1,.15,.3175,-.549926,.217183,-.596705,0.0*
1,1,.15,.217183,-.596705*
20,1,.15,.217183,-.596705,.110267,-.625353,0.0*
1,1,.15,.110267,-.625353*
20,1,.15,.110267,-.625353,0.0,-.635,0.0*
1,1,.15,0.0,-.635*
20,1,.15,0.0,-.635,-.110267,-.625353,0.0*
1,1,.15,-.110267,-.625353*
20,1,.15,-.110267,-.625353,-.217183,-.596705,0.0*
1,1,.15,-.217183,-.596705*
20,1,.15,-.217183,-.596705,-.3175,-.549926,0.0*
1,1,.15,-.3175,-.549926*
20,1,.15,-.3175,-.549926,-.40817,-.486438,0.0*
1,1,.15,-.40817,-.486438*
20,1,.15,-.40817,-.486438,-.486438,-.40817,0.0*
1,1,.15,-.486438,-.40817*
20,1,.15,-.486438,-.40817,-.549926,-.3175,0.0*
1,1,.15,-.549926,-.3175*
20,1,.15,-.549926,-.3175,-.596705,-.217183,0.0*
1,1,.15,-.596705,-.217183*
20,1,.15,-.596705,-.217183,-.625353,-.110267,0.0*
1,1,.15,-.625353,-.110267*
20,1,.15,-.625353,-.110267,-.635,0.0,0.0*
1,1,.15,-.635,0.0*
20,1,.15,-.635,0.0,-.625353,.110267,0.0*
1,1,.15,-.625353,.110267*
20,1,.15,-.625353,.110267,-.596705,.217183,0.0*
1,1,.15,-.596705,.217183*
20,1,.15,-.596705,.217183,-.549926,.3175,0.0*
1,1,.15,-.549926,.3175*
20,1,.15,-.549926,.3175,-.486438,.40817,0.0*
1,1,.15,-.486438,.40817*
20,1,.15,-.486438,.40817,-.40817,.486438,0.0*
1,1,.15,-.40817,.486438*
20,1,.15,-.40817,.486438,-.3175,.549926,0.0*
1,1,.15,-.3175,.549926*
20,1,.15,-.3175,.549926,-.217183,.596705,0.0*
1,1,.15,-.217183,.596705*
20,1,.15,-.217183,.596705,-.110267,.625353,0.0*
1,1,.15,-.110267,.625353*
20,1,.15,-.110267,.625353,0.0,.635,0.0*
1,1,.15,0.0,.635*
20,1,.15,0.0,.635,.110267,.625353,0.0*
1,1,.15,.110267,.625353*
20,1,.15,.110267,.625353,.217183,.596705,0.0*
1,1,.15,.217183,.596705*
20,1,.15,.217183,.596705,.3175,.549926,0.0*
1,1,.15,.3175,.549926*
20,1,.15,.3175,.549926,.40817,.486438,0.0*
1,1,.15,.40817,.486438*
20,1,.15,.40817,.486438,.486438,.40817,0.0*
1,1,.15,.486438,.40817*
20,1,.15,.486438,.40817,.549926,.3175,0.0*
1,1,.15,.549926,.3175*
20,1,.15,.549926,.3175,.596705,.217183,0.0*
1,1,.15,.596705,.217183*
20,1,.15,.596705,.217183,.625353,.110267,0.0*
1,1,.15,.625353,.110267*
20,1,.15,.625353,.110267,.635,0.0,0.0*
1,1,.15,.635,0.0*
1,1,.15,.3175,0.0*
20,1,.15,.3175,0.0,-.3175,0.0,0.0*
1,1,.15,-.3175,0.0*
1,1,.15,0.0,.3175*
20,1,.15,0.0,.3175,0.0,-.3175,0.0*
1,1,.15,0.0,-.3175*
%
%ADD14MACRO14*%
%AMMACRO13*
1,1,.15,.685,0.0*
20,1,.15,.685,0.0,.674593,-.118949,0.0*
1,1,.15,.674593,-.118949*
20,1,.15,.674593,-.118949,.643689,-.234284,0.0*
1,1,.15,.643689,-.234284*
20,1,.15,.643689,-.234284,.593227,-.3425,0.0*
1,1,.15,.593227,-.3425*
20,1,.15,.593227,-.3425,.52474,-.44031,0.0*
1,1,.15,.52474,-.44031*
20,1,.15,.52474,-.44031,.44031,-.52474,0.0*
1,1,.15,.44031,-.52474*
20,1,.15,.44031,-.52474,.3425,-.593227,0.0*
1,1,.15,.3425,-.593227*
20,1,.15,.3425,-.593227,.234284,-.643689,0.0*
1,1,.15,.234284,-.643689*
20,1,.15,.234284,-.643689,.118949,-.674593,0.0*
1,1,.15,.118949,-.674593*
20,1,.15,.118949,-.674593,0.0,-.685,0.0*
1,1,.15,0.0,-.685*
20,1,.15,0.0,-.685,-.118949,-.674593,0.0*
1,1,.15,-.118949,-.674593*
20,1,.15,-.118949,-.674593,-.234284,-.643689,0.0*
1,1,.15,-.234284,-.643689*
20,1,.15,-.234284,-.643689,-.3425,-.593227,0.0*
1,1,.15,-.3425,-.593227*
20,1,.15,-.3425,-.593227,-.44031,-.52474,0.0*
1,1,.15,-.44031,-.52474*
20,1,.15,-.44031,-.52474,-.52474,-.44031,0.0*
1,1,.15,-.52474,-.44031*
20,1,.15,-.52474,-.44031,-.593227,-.3425,0.0*
1,1,.15,-.593227,-.3425*
20,1,.15,-.593227,-.3425,-.643689,-.234284,0.0*
1,1,.15,-.643689,-.234284*
20,1,.15,-.643689,-.234284,-.674593,-.118949,0.0*
1,1,.15,-.674593,-.118949*
20,1,.15,-.674593,-.118949,-.685,0.0,0.0*
1,1,.15,-.685,0.0*
20,1,.15,-.685,0.0,-.674593,.118949,0.0*
1,1,.15,-.674593,.118949*
20,1,.15,-.674593,.118949,-.643689,.234284,0.0*
1,1,.15,-.643689,.234284*
20,1,.15,-.643689,.234284,-.593227,.3425,0.0*
1,1,.15,-.593227,.3425*
20,1,.15,-.593227,.3425,-.52474,.44031,0.0*
1,1,.15,-.52474,.44031*
20,1,.15,-.52474,.44031,-.44031,.52474,0.0*
1,1,.15,-.44031,.52474*
20,1,.15,-.44031,.52474,-.3425,.593227,0.0*
1,1,.15,-.3425,.593227*
20,1,.15,-.3425,.593227,-.234284,.643689,0.0*
1,1,.15,-.234284,.643689*
20,1,.15,-.234284,.643689,-.118949,.674593,0.0*
1,1,.15,-.118949,.674593*
20,1,.15,-.118949,.674593,0.0,.685,0.0*
1,1,.15,0.0,.685*
20,1,.15,0.0,.685,.118949,.674593,0.0*
1,1,.15,.118949,.674593*
20,1,.15,.118949,.674593,.234284,.643689,0.0*
1,1,.15,.234284,.643689*
20,1,.15,.234284,.643689,.3425,.593227,0.0*
1,1,.15,.3425,.593227*
20,1,.15,.3425,.593227,.44031,.52474,0.0*
1,1,.15,.44031,.52474*
20,1,.15,.44031,.52474,.52474,.44031,0.0*
1,1,.15,.52474,.44031*
20,1,.15,.52474,.44031,.593227,.3425,0.0*
1,1,.15,.593227,.3425*
20,1,.15,.593227,.3425,.643689,.234284,0.0*
1,1,.15,.643689,.234284*
20,1,.15,.643689,.234284,.674593,.118949,0.0*
1,1,.15,.674593,.118949*
20,1,.15,.674593,.118949,.685,0.0,0.0*
1,1,.15,.685,0.0*
1,1,.15,-.28,-.34*
20,1,.15,-.28,-.34,0.0,.34,0.0*
1,1,.15,0.0,.34*
20,1,.15,0.0,.34,.28,-.34,0.0*
1,1,.15,.28,-.34*
1,1,.15,.18,-.1*
20,1,.15,.18,-.1,-.18,-.1,0.0*
1,1,.15,-.18,-.1*
%
%ADD13MACRO13*%
%AMMACRO11*
1,1,.15,-.51,.315*
20,1,.15,-.51,.315,-.502252,.403561,0.0*
1,1,.15,-.502252,.403561*
20,1,.15,-.502252,.403561,-.479243,.48943,0.0*
1,1,.15,-.479243,.48943*
20,1,.15,-.479243,.48943,-.441673,.57,0.0*
1,1,.15,-.441673,.57*
20,1,.15,-.441673,.57,-.390683,.642822,0.0*
1,1,.15,-.390683,.642822*
20,1,.15,-.390683,.642822,-.327822,.705683,0.0*
1,1,.15,-.327822,.705683*
20,1,.15,-.327822,.705683,-.255,.756673,0.0*
1,1,.15,-.255,.756673*
20,1,.15,-.255,.756673,-.17443,.794243,0.0*
1,1,.15,-.17443,.794243*
20,1,.15,-.17443,.794243,-.088561,.817252,0.0*
1,1,.15,-.088561,.817252*
20,1,.15,-.088561,.817252,0.0,.825,0.0*
1,1,.15,0.0,.825*
20,1,.15,0.0,.825,.088561,.817252,0.0*
1,1,.15,.088561,.817252*
20,1,.15,.088561,.817252,.17443,.794243,0.0*
1,1,.15,.17443,.794243*
20,1,.15,.17443,.794243,.255,.756673,0.0*
1,1,.15,.255,.756673*
20,1,.15,.255,.756673,.327822,.705683,0.0*
1,1,.15,.327822,.705683*
20,1,.15,.327822,.705683,.390683,.642822,0.0*
1,1,.15,.390683,.642822*
20,1,.15,.390683,.642822,.441673,.57,0.0*
1,1,.15,.441673,.57*
20,1,.15,.441673,.57,.479243,.48943,0.0*
1,1,.15,.479243,.48943*
20,1,.15,.479243,.48943,.502252,.403561,0.0*
1,1,.15,.502252,.403561*
20,1,.15,.502252,.403561,.51,.315,0.0*
1,1,.15,.51,.315*
20,1,.15,.51,.315,.51,-.315,0.0*
1,1,.15,.51,-.315*
20,1,.15,.51,-.315,.502252,-.403561,0.0*
1,1,.15,.502252,-.403561*
20,1,.15,.502252,-.403561,.479243,-.48943,0.0*
1,1,.15,.479243,-.48943*
20,1,.15,.479243,-.48943,.441673,-.57,0.0*
1,1,.15,.441673,-.57*
20,1,.15,.441673,-.57,.390683,-.642822,0.0*
1,1,.15,.390683,-.642822*
20,1,.15,.390683,-.642822,.327822,-.705683,0.0*
1,1,.15,.327822,-.705683*
20,1,.15,.327822,-.705683,.255,-.756673,0.0*
1,1,.15,.255,-.756673*
20,1,.15,.255,-.756673,.17443,-.794243,0.0*
1,1,.15,.17443,-.794243*
20,1,.15,.17443,-.794243,.088561,-.817252,0.0*
1,1,.15,.088561,-.817252*
20,1,.15,.088561,-.817252,0.0,-.825,0.0*
1,1,.15,0.0,-.825*
20,1,.15,0.0,-.825,-.088561,-.817252,0.0*
1,1,.15,-.088561,-.817252*
20,1,.15,-.088561,-.817252,-.17443,-.794243,0.0*
1,1,.15,-.17443,-.794243*
20,1,.15,-.17443,-.794243,-.255,-.756673,0.0*
1,1,.15,-.255,-.756673*
20,1,.15,-.255,-.756673,-.327822,-.705683,0.0*
1,1,.15,-.327822,-.705683*
20,1,.15,-.327822,-.705683,-.390683,-.642822,0.0*
1,1,.15,-.390683,-.642822*
20,1,.15,-.390683,-.642822,-.441673,-.57,0.0*
1,1,.15,-.441673,-.57*
20,1,.15,-.441673,-.57,-.479243,-.48943,0.0*
1,1,.15,-.479243,-.48943*
20,1,.15,-.479243,-.48943,-.502252,-.403561,0.0*
1,1,.15,-.502252,-.403561*
20,1,.15,-.502252,-.403561,-.51,-.315,0.0*
1,1,.15,-.51,-.315*
20,1,.15,-.51,-.315,-.51,.315,0.0*
1,1,.15,-.51,.315*
%
%ADD11MACRO11*%
%AMMACRO12*
1,1,.15,.43,0.0*
20,1,.15,.43,0.0,.423467,-.074669,0.0*
1,1,.15,.423467,-.074669*
20,1,.15,.423467,-.074669,.404068,-.147069,0.0*
1,1,.15,.404068,-.147069*
20,1,.15,.404068,-.147069,.372391,-.215,0.0*
1,1,.15,.372391,-.215*
20,1,.15,.372391,-.215,.329399,-.276399,0.0*
1,1,.15,.329399,-.276399*
20,1,.15,.329399,-.276399,.276399,-.329399,0.0*
1,1,.15,.276399,-.329399*
20,1,.15,.276399,-.329399,.215,-.372391,0.0*
1,1,.15,.215,-.372391*
20,1,.15,.215,-.372391,.147069,-.404068,0.0*
1,1,.15,.147069,-.404068*
20,1,.15,.147069,-.404068,.074669,-.423467,0.0*
1,1,.15,.074669,-.423467*
20,1,.15,.074669,-.423467,0.0,-.43,0.0*
1,1,.15,0.0,-.43*
20,1,.15,0.0,-.43,-.074669,-.423467,0.0*
1,1,.15,-.074669,-.423467*
20,1,.15,-.074669,-.423467,-.147069,-.404068,0.0*
1,1,.15,-.147069,-.404068*
20,1,.15,-.147069,-.404068,-.215,-.372391,0.0*
1,1,.15,-.215,-.372391*
20,1,.15,-.215,-.372391,-.276399,-.329399,0.0*
1,1,.15,-.276399,-.329399*
20,1,.15,-.276399,-.329399,-.329399,-.276399,0.0*
1,1,.15,-.329399,-.276399*
20,1,.15,-.329399,-.276399,-.372391,-.215,0.0*
1,1,.15,-.372391,-.215*
20,1,.15,-.372391,-.215,-.404068,-.147069,0.0*
1,1,.15,-.404068,-.147069*
20,1,.15,-.404068,-.147069,-.423467,-.074669,0.0*
1,1,.15,-.423467,-.074669*
20,1,.15,-.423467,-.074669,-.43,0.0,0.0*
1,1,.15,-.43,0.0*
20,1,.15,-.43,0.0,-.423467,.074669,0.0*
1,1,.15,-.423467,.074669*
20,1,.15,-.423467,.074669,-.404068,.147069,0.0*
1,1,.15,-.404068,.147069*
20,1,.15,-.404068,.147069,-.372391,.215,0.0*
1,1,.15,-.372391,.215*
20,1,.15,-.372391,.215,-.329399,.276399,0.0*
1,1,.15,-.329399,.276399*
20,1,.15,-.329399,.276399,-.276399,.329399,0.0*
1,1,.15,-.276399,.329399*
20,1,.15,-.276399,.329399,-.215,.372391,0.0*
1,1,.15,-.215,.372391*
20,1,.15,-.215,.372391,-.147069,.404068,0.0*
1,1,.15,-.147069,.404068*
20,1,.15,-.147069,.404068,-.074669,.423467,0.0*
1,1,.15,-.074669,.423467*
20,1,.15,-.074669,.423467,0.0,.43,0.0*
1,1,.15,0.0,.43*
20,1,.15,0.0,.43,.074669,.423467,0.0*
1,1,.15,.074669,.423467*
20,1,.15,.074669,.423467,.147069,.404068,0.0*
1,1,.15,.147069,.404068*
20,1,.15,.147069,.404068,.215,.372391,0.0*
1,1,.15,.215,.372391*
20,1,.15,.215,.372391,.276399,.329399,0.0*
1,1,.15,.276399,.329399*
20,1,.15,.276399,.329399,.329399,.276399,0.0*
1,1,.15,.329399,.276399*
20,1,.15,.329399,.276399,.372391,.215,0.0*
1,1,.15,.372391,.215*
20,1,.15,.372391,.215,.404068,.147069,0.0*
1,1,.15,.404068,.147069*
20,1,.15,.404068,.147069,.423467,.074669,0.0*
1,1,.15,.423467,.074669*
20,1,.15,.423467,.074669,.43,0.0,0.0*
1,1,.15,.43,0.0*
1,1,.15,-.17,-.21*
20,1,.15,-.17,-.21,0.0,.22,0.0*
1,1,.15,0.0,.22*
20,1,.15,0.0,.22,.18,-.21,0.0*
1,1,.15,.18,-.21*
1,1,.15,.12,-.06*
20,1,.15,.12,-.06,-.11,-.06,0.0*
1,1,.15,-.11,-.06*
%
%ADD12MACRO12*%
%AMMACRO10*
1,1,.15,.635,0.0*
20,1,.15,.635,0.0,.3175,.549926,0.0*
1,1,.15,.3175,.549926*
20,1,.15,.3175,.549926,-.3175,.549926,0.0*
1,1,.15,-.3175,.549926*
20,1,.15,-.3175,.549926,-.635,0.0,0.0*
1,1,.15,-.635,0.0*
20,1,.15,-.635,0.0,-.3175,-.549926,0.0*
1,1,.15,-.3175,-.549926*
20,1,.15,-.3175,-.549926,.3175,-.549926,0.0*
1,1,.15,.3175,-.549926*
20,1,.15,.3175,-.549926,.635,0.0,0.0*
1,1,.15,.635,0.0*
%
%ADD10MACRO10*%
%ADD15C,.15*%
G75*
%LPD*%
G75*
G54D10*
X29800000Y18400000D03*
X30054000D03*
X31300000Y19854000D03*
Y19600000D03*
X31900000Y25500000D03*
X32662000D03*
X32408000D03*
X32154000D03*
X34800000Y18254000D03*
Y18000000D03*
X34700000Y19754000D03*
Y19500000D03*
X35600000Y25654000D03*
Y25400000D03*
X36400000Y18954000D03*
Y18700000D03*
X37400000Y18954000D03*
Y18700000D03*
X37308000Y25500000D03*
X37054000D03*
X36800000D03*
X37900000Y22554000D03*
Y22300000D03*
Y23254000D03*
Y23000000D03*
Y23700000D03*
Y23954000D03*
Y24400000D03*
Y24654000D03*
X37562000Y25500000D03*
X38554000Y18800000D03*
X38300000D03*
X38754000Y21800000D03*
X38500000D03*
X41242000Y20629000D03*
G54D11*
X29684000Y21600000D03*
Y22000000D03*
Y22800000D03*
Y22400000D03*
X29284000Y23700000D03*
X29684000Y23200000D03*
X29284000Y24200000D03*
Y24700000D03*
Y25200000D03*
X30300000Y23700000D03*
Y24200000D03*
Y24700000D03*
Y25200000D03*
X30700000Y21600000D03*
Y22000000D03*
Y22800000D03*
Y22400000D03*
Y23200000D03*
X32184000Y22000000D03*
Y21600000D03*
Y22400000D03*
Y22800000D03*
Y23200000D03*
X33346000Y21200000D03*
X33600000D03*
X33200000Y22000000D03*
Y21600000D03*
Y22400000D03*
Y22800000D03*
Y23200000D03*
X32946000Y24000000D03*
X33200000D03*
X33246000Y24900000D03*
X33500000D03*
X33446000Y25500000D03*
X33700000D03*
X35046000Y24900000D03*
X34446000Y25500000D03*
X34700000D03*
X35846000Y21200000D03*
X35300000Y24900000D03*
X36100000Y21200000D03*
X36146000Y24400000D03*
X36400000D03*
X41242000Y19993000D03*
G54D12*
X31038000Y22800000D03*
Y23562000D03*
Y23308000D03*
Y23054000D03*
Y24324000D03*
Y24070000D03*
Y23816000D03*
X31800000Y22800000D03*
Y23054000D03*
Y23308000D03*
Y23562000D03*
Y23816000D03*
Y24070000D03*
Y24324000D03*
X33976000Y20400000D03*
Y21162000D03*
Y20908000D03*
Y20654000D03*
Y21924000D03*
Y21670000D03*
Y21416000D03*
Y22686000D03*
Y22432000D03*
Y22178000D03*
Y23448000D03*
Y23194000D03*
Y22940000D03*
Y23702000D03*
X35500000Y20400000D03*
Y20654000D03*
Y20908000D03*
Y21162000D03*
Y21416000D03*
Y21670000D03*
Y21924000D03*
Y22178000D03*
Y22432000D03*
Y22686000D03*
Y22940000D03*
Y23194000D03*
Y23448000D03*
Y23702000D03*
X36300000Y22076000D03*
Y21822000D03*
Y22838000D03*
Y22584000D03*
Y22330000D03*
Y23600000D03*
Y23346000D03*
Y23092000D03*
X37062000Y21822000D03*
Y22076000D03*
Y22330000D03*
Y22584000D03*
Y22838000D03*
Y23092000D03*
Y23346000D03*
Y23600000D03*
X41242000Y21265000D03*
G54D13*
X33100000Y18900000D03*
X33354000D03*
X33608000D03*
X41242000Y19357000D03*
G54D14*
X33346000Y19500000D03*
X34119000Y21925000D03*
X34247000Y21553000D03*
X34069000Y22541000D03*
X34377000Y20469000D03*
X36941000Y25021000D03*
X41242000Y21901000D03*
G54D15*
G01X29000000Y17200000D02*
Y26000000D01*
X39100000D01*
Y17200000D01*
X29000000D01*
G01X40100000Y19039000D02*
Y24141000D01*
X57820000D01*
Y19039000D01*
X40100000D01*
G01Y19675000D02*
X57820000D01*
G01X40100000Y20311000D02*
X57820000D01*
G01X40100000Y20947000D02*
X57820000D01*
G01X40100000Y21583000D02*
X57820000D01*
G01X40379000Y22378000D02*
Y22696000D01*
X40529000D01*
G01X40474000Y22542000D02*
X40379000D01*
G01X40722000Y22696000D02*
X40816000D01*
G01X40769000D02*
Y22378000D01*
G01X40722000D02*
X40816000D01*
G01X41108000Y22537000D02*
X41186000D01*
Y22442000D01*
X41163000Y22410000D01*
X41135000Y22389000D01*
X41096000Y22378000D01*
X41056000Y22389000D01*
X41029000Y22410000D01*
X41005000Y22442000D01*
X40990000Y22479000D01*
X40982000Y22521000D01*
Y22558000D01*
X40990000Y22590000D01*
X41005000Y22627000D01*
X41029000Y22659000D01*
X41053000Y22680000D01*
X41084000Y22696000D01*
X41112000D01*
X41143000Y22685000D01*
X41167000Y22664000D01*
G01X41312000Y22696000D02*
Y22468000D01*
X41328000Y22420000D01*
X41360000Y22389000D01*
X41399000Y22378000D01*
X41438000Y22389000D01*
X41470000Y22420000D01*
X41486000Y22468000D01*
Y22696000D01*
G01X41635000Y22378000D02*
Y22696000D01*
X41734000D01*
X41765000Y22680000D01*
X41785000Y22659000D01*
X41793000Y22616000D01*
X41785000Y22574000D01*
X41761000Y22548000D01*
X41734000Y22532000D01*
X41635000D01*
G01X41734000D02*
X41793000Y22378000D01*
G01X42108000D02*
X41950000D01*
Y22696000D01*
X42108000D01*
G01X42045000Y22542000D02*
X41950000D01*
G01X40100000Y22855000D02*
X57820000D01*
G01X40100000Y22219000D02*
X57820000D01*
G01X40100000Y23491000D02*
X57820000D01*
G01X42384000Y22855000D02*
Y19039000D01*
G01X42979000Y22378000D02*
Y22696000D01*
X43129000D01*
G01X43074000Y22542000D02*
X42979000D01*
G01X43322000Y22696000D02*
X43416000D01*
G01X43369000D02*
Y22378000D01*
G01X43322000D02*
X43416000D01*
G01X43594000D02*
Y22696000D01*
X43774000Y22378000D01*
Y22696000D01*
G01X43952000D02*
X44046000D01*
G01X43999000D02*
Y22378000D01*
G01X43952000D02*
X44046000D01*
G01X44231000Y22420000D02*
X44263000Y22394000D01*
X44298000Y22378000D01*
X44330000D01*
X44361000Y22394000D01*
X44385000Y22420000D01*
X44397000Y22458000D01*
X44389000Y22495000D01*
X44369000Y22526000D01*
X44334000Y22548000D01*
X44286000Y22558000D01*
X44259000Y22579000D01*
X44247000Y22616000D01*
X44255000Y22654000D01*
X44275000Y22680000D01*
X44302000Y22696000D01*
X44330000D01*
X44357000Y22685000D01*
X44381000Y22659000D01*
G01X44546000Y22378000D02*
Y22696000D01*
G01X44712000D02*
Y22378000D01*
G01Y22537000D02*
X44546000D01*
G01X45023000Y22378000D02*
X44865000D01*
Y22696000D01*
X45023000D01*
G01X44960000Y22542000D02*
X44865000D01*
G01X45172000Y22378000D02*
Y22696000D01*
X45251000D01*
X45283000Y22680000D01*
X45306000Y22659000D01*
X45326000Y22627000D01*
X45342000Y22590000D01*
X45346000Y22537000D01*
X45342000Y22484000D01*
X45326000Y22447000D01*
X45306000Y22415000D01*
X45283000Y22394000D01*
X45251000Y22378000D01*
X45172000D01*
G01X45456000Y22272000D02*
X45692000D01*
G01X45806000Y22420000D02*
X45838000Y22394000D01*
X45873000Y22378000D01*
X45905000D01*
X45936000Y22394000D01*
X45960000Y22420000D01*
X45972000Y22458000D01*
X45964000Y22495000D01*
X45944000Y22526000D01*
X45909000Y22548000D01*
X45861000Y22558000D01*
X45834000Y22579000D01*
X45822000Y22616000D01*
X45830000Y22654000D01*
X45850000Y22680000D01*
X45877000Y22696000D01*
X45905000D01*
X45932000Y22685000D01*
X45956000Y22659000D01*
G01X46157000Y22696000D02*
X46251000D01*
G01X46204000D02*
Y22378000D01*
G01X46157000D02*
X46251000D01*
G01X46444000Y22696000D02*
X46594000D01*
X46444000Y22378000D01*
X46594000D01*
G01X46913000D02*
X46755000D01*
Y22696000D01*
X46913000D01*
G01X46850000Y22542000D02*
X46755000D01*
G01X44471000Y19834000D02*
Y20152000D01*
X44424000Y20088000D01*
G01Y19834000D02*
X44518000D01*
G01X44786000Y19823000D02*
X44778000Y19829000D01*
Y19839000D01*
X44786000Y19845000D01*
X44794000Y19839000D01*
Y19829000D01*
X44786000Y19823000D01*
G01X45101000Y20152000D02*
X45070000Y20141000D01*
X45046000Y20115000D01*
X45030000Y20083000D01*
X45018000Y20041000D01*
X45014000Y19993000D01*
X45018000Y19945000D01*
X45030000Y19903000D01*
X45046000Y19871000D01*
X45070000Y19845000D01*
X45101000Y19834000D01*
X45132000Y19845000D01*
X45156000Y19871000D01*
X45172000Y19903000D01*
X45184000Y19945000D01*
X45188000Y19993000D01*
X45184000Y20041000D01*
X45172000Y20083000D01*
X45156000Y20115000D01*
X45132000Y20141000D01*
X45101000Y20152000D01*
G01X45408000Y19834000D02*
X45416000Y19903000D01*
X45428000Y19961000D01*
X45444000Y20014000D01*
X45463000Y20072000D01*
X45495000Y20152000D01*
X45337000D01*
G01X44471000Y19198000D02*
Y19516000D01*
X44424000Y19452000D01*
G01Y19198000D02*
X44518000D01*
G01X44786000Y19187000D02*
X44778000Y19193000D01*
Y19203000D01*
X44786000Y19209000D01*
X44794000Y19203000D01*
Y19193000D01*
X44786000Y19187000D01*
G01X45014000Y19262000D02*
X45038000Y19224000D01*
X45070000Y19203000D01*
X45105000Y19198000D01*
X45136000Y19203000D01*
X45168000Y19230000D01*
X45188000Y19262000D01*
X45191000Y19293000D01*
X45184000Y19330000D01*
X45156000Y19357000D01*
X45129000Y19368000D01*
X45093000D01*
G01X45129000D02*
X45152000Y19383000D01*
X45172000Y19410000D01*
X45180000Y19442000D01*
X45172000Y19474000D01*
X45152000Y19500000D01*
X45117000Y19516000D01*
X45081000Y19511000D01*
X45046000Y19489000D01*
G01X45408000Y19198000D02*
X45416000Y19267000D01*
X45428000Y19325000D01*
X45444000Y19378000D01*
X45463000Y19436000D01*
X45495000Y19516000D01*
X45337000D01*
G01X44471000Y20788000D02*
X44440000Y20777000D01*
X44416000Y20751000D01*
X44400000Y20719000D01*
X44388000Y20677000D01*
X44384000Y20629000D01*
X44388000Y20581000D01*
X44400000Y20539000D01*
X44416000Y20507000D01*
X44440000Y20481000D01*
X44471000Y20470000D01*
X44502000Y20481000D01*
X44526000Y20507000D01*
X44542000Y20539000D01*
X44554000Y20581000D01*
X44558000Y20629000D01*
X44554000Y20677000D01*
X44542000Y20719000D01*
X44526000Y20751000D01*
X44502000Y20777000D01*
X44471000Y20788000D01*
G01X44786000Y20459000D02*
X44778000Y20465000D01*
Y20475000D01*
X44786000Y20481000D01*
X44794000Y20475000D01*
Y20465000D01*
X44786000Y20459000D01*
G01X45034000Y20507000D02*
X45062000Y20481000D01*
X45093000Y20470000D01*
X45125000Y20481000D01*
X45152000Y20512000D01*
X45172000Y20560000D01*
X45180000Y20608000D01*
Y20666000D01*
X45172000Y20714000D01*
X45152000Y20756000D01*
X45129000Y20777000D01*
X45101000Y20788000D01*
X45070000Y20777000D01*
X45046000Y20756000D01*
X45030000Y20724000D01*
X45022000Y20682000D01*
X45030000Y20645000D01*
X45050000Y20608000D01*
X45073000Y20587000D01*
X45101000Y20581000D01*
X45132000Y20592000D01*
X45156000Y20618000D01*
X45180000Y20666000D01*
G01X45416000Y20470000D02*
Y20788000D01*
X45369000Y20724000D01*
G01Y20470000D02*
X45463000D01*
G01X44471000Y21424000D02*
X44440000Y21413000D01*
X44416000Y21387000D01*
X44400000Y21355000D01*
X44388000Y21313000D01*
X44384000Y21265000D01*
X44388000Y21217000D01*
X44400000Y21175000D01*
X44416000Y21143000D01*
X44440000Y21117000D01*
X44471000Y21106000D01*
X44502000Y21117000D01*
X44526000Y21143000D01*
X44542000Y21175000D01*
X44554000Y21217000D01*
X44558000Y21265000D01*
X44554000Y21313000D01*
X44542000Y21355000D01*
X44526000Y21387000D01*
X44502000Y21413000D01*
X44471000Y21424000D01*
G01X44786000Y21095000D02*
X44778000Y21101000D01*
Y21111000D01*
X44786000Y21117000D01*
X44794000Y21111000D01*
Y21101000D01*
X44786000Y21095000D01*
G01X45101000Y21106000D02*
X45129000Y21111000D01*
X45160000Y21127000D01*
X45180000Y21154000D01*
X45188000Y21191000D01*
X45180000Y21228000D01*
X45156000Y21260000D01*
X45121000Y21276000D01*
X45081000D01*
X45058000Y21286000D01*
X45038000Y21313000D01*
X45030000Y21350000D01*
X45042000Y21387000D01*
X45070000Y21413000D01*
X45101000Y21424000D01*
X45132000Y21413000D01*
X45160000Y21387000D01*
X45172000Y21350000D01*
X45164000Y21313000D01*
X45144000Y21286000D01*
X45121000Y21276000D01*
X45081000D01*
X45046000Y21260000D01*
X45022000Y21228000D01*
X45014000Y21191000D01*
X45022000Y21154000D01*
X45042000Y21127000D01*
X45073000Y21111000D01*
X45101000Y21106000D01*
G01X45341000Y21238000D02*
X45369000Y21276000D01*
X45392000Y21297000D01*
X45424000Y21307000D01*
X45451000Y21297000D01*
X45471000Y21276000D01*
X45487000Y21244000D01*
X45491000Y21207000D01*
X45487000Y21175000D01*
X45471000Y21143000D01*
X45447000Y21117000D01*
X45420000Y21106000D01*
X45388000Y21117000D01*
X45361000Y21148000D01*
X45345000Y21196000D01*
X45341000Y21249000D01*
X45349000Y21318000D01*
X45361000Y21355000D01*
X45381000Y21392000D01*
X45408000Y21419000D01*
X45436000Y21424000D01*
X45463000Y21413000D01*
X45483000Y21387000D01*
G01X44471000Y22060000D02*
X44440000Y22049000D01*
X44416000Y22023000D01*
X44400000Y21991000D01*
X44388000Y21949000D01*
X44384000Y21901000D01*
X44388000Y21853000D01*
X44400000Y21811000D01*
X44416000Y21779000D01*
X44440000Y21753000D01*
X44471000Y21742000D01*
X44502000Y21753000D01*
X44526000Y21779000D01*
X44542000Y21811000D01*
X44554000Y21853000D01*
X44558000Y21901000D01*
X44554000Y21949000D01*
X44542000Y21991000D01*
X44526000Y22023000D01*
X44502000Y22049000D01*
X44471000Y22060000D01*
G01X44786000Y21731000D02*
X44778000Y21737000D01*
Y21747000D01*
X44786000Y21753000D01*
X44794000Y21747000D01*
Y21737000D01*
X44786000Y21731000D01*
G01X45014000Y21806000D02*
X45038000Y21768000D01*
X45070000Y21747000D01*
X45105000Y21742000D01*
X45136000Y21747000D01*
X45168000Y21774000D01*
X45188000Y21806000D01*
X45191000Y21837000D01*
X45184000Y21874000D01*
X45156000Y21901000D01*
X45129000Y21912000D01*
X45093000D01*
G01X45129000D02*
X45152000Y21927000D01*
X45172000Y21954000D01*
X45180000Y21986000D01*
X45172000Y22018000D01*
X45152000Y22044000D01*
X45117000Y22060000D01*
X45081000Y22055000D01*
X45046000Y22033000D01*
G01X45329000Y21806000D02*
X45353000Y21768000D01*
X45385000Y21747000D01*
X45420000Y21742000D01*
X45451000Y21747000D01*
X45483000Y21774000D01*
X45503000Y21806000D01*
X45506000Y21837000D01*
X45499000Y21874000D01*
X45471000Y21901000D01*
X45444000Y21912000D01*
X45408000D01*
G01X45444000D02*
X45467000Y21927000D01*
X45487000Y21954000D01*
X45495000Y21986000D01*
X45487000Y22018000D01*
X45467000Y22044000D01*
X45432000Y22060000D01*
X45396000Y22055000D01*
X45361000Y22033000D01*
G01X44935000Y23664000D02*
Y23982000D01*
X45014000D01*
X45046000Y23966000D01*
X45069000Y23945000D01*
X45089000Y23913000D01*
X45105000Y23876000D01*
X45109000Y23823000D01*
X45105000Y23770000D01*
X45089000Y23733000D01*
X45069000Y23701000D01*
X45046000Y23680000D01*
X45014000Y23664000D01*
X44935000D01*
G01X45258000D02*
Y23982000D01*
X45357000D01*
X45388000Y23966000D01*
X45408000Y23945000D01*
X45416000Y23902000D01*
X45408000Y23860000D01*
X45384000Y23834000D01*
X45357000Y23818000D01*
X45258000D01*
G01X45357000D02*
X45416000Y23664000D01*
G01X45605000Y23982000D02*
X45699000D01*
G01X45652000D02*
Y23664000D01*
G01X45605000D02*
X45699000D01*
G01X45888000Y23982000D02*
Y23664000D01*
X46046000D01*
G01X46203000Y23982000D02*
Y23664000D01*
X46361000D01*
G01X46999000Y23955000D02*
X46975000Y23971000D01*
X46947000Y23982000D01*
X46916000D01*
X46881000Y23966000D01*
X46853000Y23940000D01*
X46833000Y23908000D01*
X46818000Y23855000D01*
X46814000Y23807000D01*
X46822000Y23759000D01*
X46833000Y23728000D01*
X46857000Y23696000D01*
X46884000Y23675000D01*
X46912000Y23664000D01*
X46940000D01*
X46967000Y23675000D01*
X46991000Y23690000D01*
X47010000Y23712000D01*
G01X47144000Y23664000D02*
Y23982000D01*
G01X47310000D02*
Y23664000D01*
G01Y23823000D02*
X47144000D01*
G01X47444000Y23664000D02*
X47542000Y23982000D01*
X47640000Y23664000D01*
G01X47605000Y23775000D02*
X47479000D01*
G01X47778000Y23664000D02*
Y23982000D01*
X47877000D01*
X47908000Y23966000D01*
X47928000Y23945000D01*
X47936000Y23902000D01*
X47928000Y23860000D01*
X47904000Y23834000D01*
X47877000Y23818000D01*
X47778000D01*
G01X47877000D02*
X47936000Y23664000D01*
G01X48172000Y23982000D02*
Y23664000D01*
G01X48082000Y23982000D02*
X48262000D01*
G01X48487000Y23653000D02*
X48479000Y23659000D01*
Y23669000D01*
X48487000Y23675000D01*
X48495000Y23669000D01*
Y23659000D01*
X48487000Y23653000D01*
G01Y23796000D02*
X48479000Y23802000D01*
Y23812000D01*
X48487000Y23818000D01*
X48495000Y23812000D01*
Y23802000D01*
X48487000Y23796000D01*
G01X49117000Y23982000D02*
Y23664000D01*
G01X49027000Y23982000D02*
X49207000D01*
G01X49432000Y23664000D02*
X49401000Y23669000D01*
X49373000Y23690000D01*
X49349000Y23722000D01*
X49334000Y23759000D01*
X49326000Y23802000D01*
Y23844000D01*
X49334000Y23887000D01*
X49349000Y23924000D01*
X49373000Y23955000D01*
X49401000Y23977000D01*
X49432000Y23982000D01*
X49463000Y23977000D01*
X49491000Y23955000D01*
X49515000Y23924000D01*
X49530000Y23887000D01*
X49538000Y23844000D01*
Y23802000D01*
X49530000Y23759000D01*
X49515000Y23722000D01*
X49491000Y23690000D01*
X49463000Y23669000D01*
X49432000Y23664000D01*
G01X49668000D02*
Y23982000D01*
X49763000D01*
X49794000Y23966000D01*
X49818000Y23929000D01*
X49826000Y23887000D01*
X49818000Y23844000D01*
X49798000Y23812000D01*
X49763000Y23796000D01*
X49668000D01*
G01X50377000Y23982000D02*
Y23664000D01*
G01X50322000Y23876000D02*
X50432000D01*
G01X50692000Y23664000D02*
X50668000Y23669000D01*
X50645000Y23690000D01*
X50629000Y23728000D01*
X50621000Y23770000D01*
X50629000Y23812000D01*
X50645000Y23849000D01*
X50668000Y23871000D01*
X50692000Y23876000D01*
X50716000Y23871000D01*
X50739000Y23849000D01*
X50755000Y23812000D01*
X50759000Y23770000D01*
X50755000Y23728000D01*
X50739000Y23690000D01*
X50716000Y23669000D01*
X50692000Y23664000D01*
G01X51353000Y23834000D02*
X51369000Y23849000D01*
X51381000Y23876000D01*
X51389000Y23913000D01*
X51381000Y23945000D01*
X51365000Y23966000D01*
X51338000Y23982000D01*
X51232000D01*
Y23664000D01*
X51361000D01*
X51389000Y23685000D01*
X51405000Y23717000D01*
X51412000Y23754000D01*
X51405000Y23791000D01*
X51381000Y23823000D01*
X51353000Y23834000D01*
X51232000D01*
G01X51637000Y23664000D02*
X51606000Y23669000D01*
X51578000Y23690000D01*
X51554000Y23722000D01*
X51539000Y23759000D01*
X51531000Y23802000D01*
Y23844000D01*
X51539000Y23887000D01*
X51554000Y23924000D01*
X51578000Y23955000D01*
X51606000Y23977000D01*
X51637000Y23982000D01*
X51668000Y23977000D01*
X51696000Y23955000D01*
X51720000Y23924000D01*
X51735000Y23887000D01*
X51743000Y23844000D01*
Y23802000D01*
X51735000Y23759000D01*
X51720000Y23722000D01*
X51696000Y23690000D01*
X51668000Y23669000D01*
X51637000Y23664000D01*
G01X51952000Y23982000D02*
Y23664000D01*
G01X51862000Y23982000D02*
X52042000D01*
G01X52267000D02*
Y23664000D01*
G01X52177000Y23982000D02*
X52357000D01*
G01X52582000Y23664000D02*
X52551000Y23669000D01*
X52523000Y23690000D01*
X52499000Y23722000D01*
X52484000Y23759000D01*
X52476000Y23802000D01*
Y23844000D01*
X52484000Y23887000D01*
X52499000Y23924000D01*
X52523000Y23955000D01*
X52551000Y23977000D01*
X52582000Y23982000D01*
X52613000Y23977000D01*
X52641000Y23955000D01*
X52665000Y23924000D01*
X52680000Y23887000D01*
X52688000Y23844000D01*
Y23802000D01*
X52680000Y23759000D01*
X52665000Y23722000D01*
X52641000Y23690000D01*
X52613000Y23669000D01*
X52582000Y23664000D01*
G01X52795000D02*
Y23982000D01*
X52897000Y23717000D01*
X52999000Y23982000D01*
Y23664000D01*
G01X44609000Y23014000D02*
X44707000Y23332000D01*
X44805000Y23014000D01*
G01X44770000Y23125000D02*
X44644000D01*
G01X44943000Y23332000D02*
Y23014000D01*
X45101000D01*
G01X45258000Y23332000D02*
Y23014000D01*
X45416000D01*
G01X45880000Y23332000D02*
Y23104000D01*
X45896000Y23056000D01*
X45928000Y23025000D01*
X45967000Y23014000D01*
X46006000Y23025000D01*
X46038000Y23056000D01*
X46054000Y23104000D01*
Y23332000D01*
G01X46192000Y23014000D02*
Y23332000D01*
X46372000Y23014000D01*
Y23332000D01*
G01X46550000D02*
X46644000D01*
G01X46597000D02*
Y23014000D01*
G01X46550000D02*
X46644000D01*
G01X46912000Y23332000D02*
Y23014000D01*
G01X46822000Y23332000D02*
X47002000D01*
G01X47144000Y23056000D02*
X47176000Y23030000D01*
X47211000Y23014000D01*
X47243000D01*
X47274000Y23030000D01*
X47298000Y23056000D01*
X47310000Y23094000D01*
X47302000Y23131000D01*
X47282000Y23162000D01*
X47247000Y23184000D01*
X47199000Y23194000D01*
X47172000Y23215000D01*
X47160000Y23252000D01*
X47168000Y23290000D01*
X47188000Y23316000D01*
X47215000Y23332000D01*
X47243000D01*
X47270000Y23321000D01*
X47294000Y23295000D01*
G01X47759000Y23014000D02*
X47857000Y23332000D01*
X47955000Y23014000D01*
G01X47920000Y23125000D02*
X47794000D01*
G01X48093000Y23014000D02*
Y23332000D01*
X48192000D01*
X48223000Y23316000D01*
X48243000Y23295000D01*
X48251000Y23252000D01*
X48243000Y23210000D01*
X48219000Y23184000D01*
X48192000Y23168000D01*
X48093000D01*
G01X48192000D02*
X48251000Y23014000D01*
G01X48566000D02*
X48408000D01*
Y23332000D01*
X48566000D01*
G01X48503000Y23178000D02*
X48408000D01*
G01X49070000Y23332000D02*
X49164000D01*
G01X49117000D02*
Y23014000D01*
G01X49070000D02*
X49164000D01*
G01X49342000D02*
Y23332000D01*
X49522000Y23014000D01*
Y23332000D01*
G01X49960000Y23014000D02*
Y23332000D01*
X50062000Y23067000D01*
X50164000Y23332000D01*
Y23014000D01*
G01X50330000Y23332000D02*
X50424000D01*
G01X50377000D02*
Y23014000D01*
G01X50330000D02*
X50424000D01*
G01X50613000Y23332000D02*
Y23014000D01*
X50771000D01*
G01X50928000Y23332000D02*
Y23014000D01*
X51086000D01*
G01X51275000Y23332000D02*
X51369000D01*
G01X51322000D02*
Y23014000D01*
G01X51275000D02*
X51369000D01*
G01X51535000D02*
Y23332000D01*
X51637000Y23067000D01*
X51739000Y23332000D01*
Y23014000D01*
G01X52031000D02*
X51873000D01*
Y23332000D01*
X52031000D01*
G01X51968000Y23178000D02*
X51873000D01*
G01X52267000Y23332000D02*
Y23014000D01*
G01X52177000Y23332000D02*
X52357000D01*
G01X52661000Y23014000D02*
X52503000D01*
Y23332000D01*
X52661000D01*
G01X52598000Y23178000D02*
X52503000D01*
G01X52818000Y23014000D02*
Y23332000D01*
X52917000D01*
X52948000Y23316000D01*
X52968000Y23295000D01*
X52976000Y23252000D01*
X52968000Y23210000D01*
X52944000Y23184000D01*
X52917000Y23168000D01*
X52818000D01*
G01X52917000D02*
X52976000Y23014000D01*
G01X53129000Y23056000D02*
X53161000Y23030000D01*
X53196000Y23014000D01*
X53228000D01*
X53259000Y23030000D01*
X53283000Y23056000D01*
X53295000Y23094000D01*
X53287000Y23131000D01*
X53267000Y23162000D01*
X53232000Y23184000D01*
X53184000Y23194000D01*
X53157000Y23215000D01*
X53145000Y23252000D01*
X53153000Y23290000D01*
X53173000Y23316000D01*
X53200000Y23332000D01*
X53228000D01*
X53255000Y23321000D01*
X53279000Y23295000D01*
G01X47503000Y22855000D02*
Y19039000D01*
G01X48242000Y22378000D02*
Y22696000D01*
X48321000D01*
X48353000Y22680000D01*
X48376000Y22659000D01*
X48396000Y22627000D01*
X48412000Y22590000D01*
X48416000Y22537000D01*
X48412000Y22484000D01*
X48396000Y22447000D01*
X48376000Y22415000D01*
X48353000Y22394000D01*
X48321000Y22378000D01*
X48242000D01*
G01X48565000D02*
Y22696000D01*
X48664000D01*
X48695000Y22680000D01*
X48715000Y22659000D01*
X48723000Y22616000D01*
X48715000Y22574000D01*
X48691000Y22548000D01*
X48664000Y22532000D01*
X48565000D01*
G01X48664000D02*
X48723000Y22378000D01*
G01X48912000Y22696000D02*
X49006000D01*
G01X48959000D02*
Y22378000D01*
G01X48912000D02*
X49006000D01*
G01X49195000Y22696000D02*
Y22378000D01*
X49353000D01*
G01X49510000Y22696000D02*
Y22378000D01*
X49668000D01*
G01X49983000D02*
X49825000D01*
Y22696000D01*
X49983000D01*
G01X49920000Y22542000D02*
X49825000D01*
G01X50132000Y22378000D02*
Y22696000D01*
X50211000D01*
X50243000Y22680000D01*
X50266000Y22659000D01*
X50286000Y22627000D01*
X50302000Y22590000D01*
X50306000Y22537000D01*
X50302000Y22484000D01*
X50286000Y22447000D01*
X50266000Y22415000D01*
X50243000Y22394000D01*
X50211000Y22378000D01*
X50132000D01*
G01X50416000Y22272000D02*
X50652000D01*
G01X50766000Y22420000D02*
X50798000Y22394000D01*
X50833000Y22378000D01*
X50865000D01*
X50896000Y22394000D01*
X50920000Y22420000D01*
X50932000Y22458000D01*
X50924000Y22495000D01*
X50904000Y22526000D01*
X50869000Y22548000D01*
X50821000Y22558000D01*
X50794000Y22579000D01*
X50782000Y22616000D01*
X50790000Y22654000D01*
X50810000Y22680000D01*
X50837000Y22696000D01*
X50865000D01*
X50892000Y22685000D01*
X50916000Y22659000D01*
G01X51117000Y22696000D02*
X51211000D01*
G01X51164000D02*
Y22378000D01*
G01X51117000D02*
X51211000D01*
G01X51404000Y22696000D02*
X51554000D01*
X51404000Y22378000D01*
X51554000D01*
G01X51873000D02*
X51715000D01*
Y22696000D01*
X51873000D01*
G01X51810000Y22542000D02*
X51715000D01*
G01X50011000Y19940000D02*
X50113000D01*
G01X50011000Y19304000D02*
X50113000D01*
G01X50011000Y20576000D02*
X50113000D01*
G01X50011000Y21212000D02*
X50113000D01*
G01X50011000Y21848000D02*
X50113000D01*
G01X52622000Y22855000D02*
Y19039000D01*
G01X53369000Y19834000D02*
Y20152000D01*
X53464000D01*
X53495000Y20136000D01*
X53519000Y20099000D01*
X53527000Y20057000D01*
X53519000Y20014000D01*
X53499000Y19982000D01*
X53464000Y19966000D01*
X53369000D01*
G01X53684000Y20152000D02*
Y19834000D01*
X53842000D01*
G01X53980000D02*
X54078000Y20152000D01*
X54176000Y19834000D01*
G01X54141000Y19945000D02*
X54015000D01*
G01X54393000Y20152000D02*
Y19834000D01*
G01X54303000Y20152000D02*
X54483000D01*
G01X54787000Y19834000D02*
X54629000D01*
Y20152000D01*
X54787000D01*
G01X54724000Y19998000D02*
X54629000D01*
G01X54936000Y19834000D02*
Y20152000D01*
X55015000D01*
X55047000Y20136000D01*
X55070000Y20115000D01*
X55090000Y20083000D01*
X55106000Y20046000D01*
X55110000Y19993000D01*
X55106000Y19940000D01*
X55090000Y19903000D01*
X55070000Y19871000D01*
X55047000Y19850000D01*
X55015000Y19834000D01*
X54936000D01*
G01X53369000Y19198000D02*
Y19516000D01*
X53464000D01*
X53495000Y19500000D01*
X53519000Y19463000D01*
X53527000Y19421000D01*
X53519000Y19378000D01*
X53499000Y19346000D01*
X53464000Y19330000D01*
X53369000D01*
G01X53684000Y19516000D02*
Y19198000D01*
X53842000D01*
G01X53980000D02*
X54078000Y19516000D01*
X54176000Y19198000D01*
G01X54141000Y19309000D02*
X54015000D01*
G01X54393000Y19516000D02*
Y19198000D01*
G01X54303000Y19516000D02*
X54483000D01*
G01X54787000Y19198000D02*
X54629000D01*
Y19516000D01*
X54787000D01*
G01X54724000Y19362000D02*
X54629000D01*
G01X54936000Y19198000D02*
Y19516000D01*
X55015000D01*
X55047000Y19500000D01*
X55070000Y19479000D01*
X55090000Y19447000D01*
X55106000Y19410000D01*
X55110000Y19357000D01*
X55106000Y19304000D01*
X55090000Y19267000D01*
X55070000Y19235000D01*
X55047000Y19214000D01*
X55015000Y19198000D01*
X54936000D01*
G01X53369000Y20470000D02*
Y20788000D01*
X53464000D01*
X53495000Y20772000D01*
X53519000Y20735000D01*
X53527000Y20693000D01*
X53519000Y20650000D01*
X53499000Y20618000D01*
X53464000Y20602000D01*
X53369000D01*
G01X53684000Y20788000D02*
Y20470000D01*
X53842000D01*
G01X53980000D02*
X54078000Y20788000D01*
X54176000Y20470000D01*
G01X54141000Y20581000D02*
X54015000D01*
G01X54393000Y20788000D02*
Y20470000D01*
G01X54303000Y20788000D02*
X54483000D01*
G01X54787000Y20470000D02*
X54629000D01*
Y20788000D01*
X54787000D01*
G01X54724000Y20634000D02*
X54629000D01*
G01X54936000Y20470000D02*
Y20788000D01*
X55015000D01*
X55047000Y20772000D01*
X55070000Y20751000D01*
X55090000Y20719000D01*
X55106000Y20682000D01*
X55110000Y20629000D01*
X55106000Y20576000D01*
X55090000Y20539000D01*
X55070000Y20507000D01*
X55047000Y20486000D01*
X55015000Y20470000D01*
X54936000D01*
G01X53369000Y21106000D02*
Y21424000D01*
X53464000D01*
X53495000Y21408000D01*
X53519000Y21371000D01*
X53527000Y21329000D01*
X53519000Y21286000D01*
X53499000Y21254000D01*
X53464000Y21238000D01*
X53369000D01*
G01X53684000Y21424000D02*
Y21106000D01*
X53842000D01*
G01X53980000D02*
X54078000Y21424000D01*
X54176000Y21106000D01*
G01X54141000Y21217000D02*
X54015000D01*
G01X54393000Y21424000D02*
Y21106000D01*
G01X54303000Y21424000D02*
X54483000D01*
G01X54787000Y21106000D02*
X54629000D01*
Y21424000D01*
X54787000D01*
G01X54724000Y21270000D02*
X54629000D01*
G01X54936000Y21106000D02*
Y21424000D01*
X55015000D01*
X55047000Y21408000D01*
X55070000Y21387000D01*
X55090000Y21355000D01*
X55106000Y21318000D01*
X55110000Y21265000D01*
X55106000Y21212000D01*
X55090000Y21175000D01*
X55070000Y21143000D01*
X55047000Y21122000D01*
X55015000Y21106000D01*
X54936000D01*
G01X53369000Y21742000D02*
Y22060000D01*
X53464000D01*
X53495000Y22044000D01*
X53519000Y22007000D01*
X53527000Y21965000D01*
X53519000Y21922000D01*
X53499000Y21890000D01*
X53464000Y21874000D01*
X53369000D01*
G01X53684000Y22060000D02*
Y21742000D01*
X53842000D01*
G01X53980000D02*
X54078000Y22060000D01*
X54176000Y21742000D01*
G01X54141000Y21853000D02*
X54015000D01*
G01X54393000Y22060000D02*
Y21742000D01*
G01X54303000Y22060000D02*
X54483000D01*
G01X54787000Y21742000D02*
X54629000D01*
Y22060000D01*
X54787000D01*
G01X54724000Y21906000D02*
X54629000D01*
G01X54936000Y21742000D02*
Y22060000D01*
X55015000D01*
X55047000Y22044000D01*
X55070000Y22023000D01*
X55090000Y21991000D01*
X55106000Y21954000D01*
X55110000Y21901000D01*
X55106000Y21848000D01*
X55090000Y21811000D01*
X55070000Y21779000D01*
X55047000Y21758000D01*
X55015000Y21742000D01*
X54936000D01*
G01X53369000Y22378000D02*
Y22696000D01*
X53464000D01*
X53495000Y22680000D01*
X53519000Y22643000D01*
X53527000Y22601000D01*
X53519000Y22558000D01*
X53499000Y22526000D01*
X53464000Y22510000D01*
X53369000D01*
G01X53684000Y22696000D02*
Y22378000D01*
X53842000D01*
G01X53980000D02*
X54078000Y22696000D01*
X54176000Y22378000D01*
G01X54141000Y22489000D02*
X54015000D01*
G01X54393000Y22696000D02*
Y22378000D01*
G01X54303000Y22696000D02*
X54483000D01*
G01X54787000Y22378000D02*
X54629000D01*
Y22696000D01*
X54787000D01*
G01X54724000Y22542000D02*
X54629000D01*
G01X54936000Y22378000D02*
Y22696000D01*
X55015000D01*
X55047000Y22680000D01*
X55070000Y22659000D01*
X55090000Y22627000D01*
X55106000Y22590000D01*
X55110000Y22537000D01*
X55106000Y22484000D01*
X55090000Y22447000D01*
X55070000Y22415000D01*
X55047000Y22394000D01*
X55015000Y22378000D01*
X54936000D01*
G01X55851000Y22855000D02*
Y19039000D01*
G01X56725000Y19834000D02*
Y20152000D01*
X56580000Y19924000D01*
X56776000D01*
G01X57040000Y19834000D02*
Y20152000D01*
X56895000Y19924000D01*
X57091000D01*
G01X56749000Y19262000D02*
X56773000Y19224000D01*
X56805000Y19203000D01*
X56840000Y19198000D01*
X56871000Y19203000D01*
X56903000Y19230000D01*
X56923000Y19262000D01*
X56926000Y19293000D01*
X56919000Y19330000D01*
X56891000Y19357000D01*
X56864000Y19368000D01*
X56828000D01*
G01X56864000D02*
X56887000Y19383000D01*
X56907000Y19410000D01*
X56915000Y19442000D01*
X56907000Y19474000D01*
X56887000Y19500000D01*
X56852000Y19516000D01*
X56816000Y19511000D01*
X56781000Y19489000D01*
G01X56591000Y20534000D02*
X56615000Y20496000D01*
X56647000Y20475000D01*
X56682000Y20470000D01*
X56713000Y20475000D01*
X56745000Y20502000D01*
X56765000Y20534000D01*
X56768000Y20565000D01*
X56761000Y20602000D01*
X56733000Y20629000D01*
X56706000Y20640000D01*
X56670000D01*
G01X56706000D02*
X56729000Y20655000D01*
X56749000Y20682000D01*
X56757000Y20714000D01*
X56749000Y20746000D01*
X56729000Y20772000D01*
X56694000Y20788000D01*
X56658000Y20783000D01*
X56623000Y20761000D01*
G01X57040000Y20470000D02*
Y20788000D01*
X56895000Y20560000D01*
X57091000D01*
G01X56591000Y21154000D02*
X56615000Y21127000D01*
X56643000Y21111000D01*
X56678000Y21106000D01*
X56713000Y21117000D01*
X56741000Y21138000D01*
X56761000Y21175000D01*
X56765000Y21217000D01*
X56757000Y21260000D01*
X56737000Y21286000D01*
X56709000Y21307000D01*
X56682000Y21313000D01*
X56654000Y21307000D01*
X56619000Y21286000D01*
X56631000Y21424000D01*
X56737000D01*
G01X56993000Y21106000D02*
X57021000Y21111000D01*
X57052000Y21127000D01*
X57072000Y21154000D01*
X57080000Y21191000D01*
X57072000Y21228000D01*
X57048000Y21260000D01*
X57013000Y21276000D01*
X56973000D01*
X56950000Y21286000D01*
X56930000Y21313000D01*
X56922000Y21350000D01*
X56934000Y21387000D01*
X56962000Y21413000D01*
X56993000Y21424000D01*
X57024000Y21413000D01*
X57052000Y21387000D01*
X57064000Y21350000D01*
X57056000Y21313000D01*
X57036000Y21286000D01*
X57013000Y21276000D01*
X56973000D01*
X56938000Y21260000D01*
X56914000Y21228000D01*
X56906000Y21191000D01*
X56914000Y21154000D01*
X56934000Y21127000D01*
X56965000Y21111000D01*
X56993000Y21106000D01*
G01X56761000Y21874000D02*
X56789000Y21912000D01*
X56812000Y21933000D01*
X56844000Y21943000D01*
X56871000Y21933000D01*
X56891000Y21912000D01*
X56907000Y21880000D01*
X56911000Y21843000D01*
X56907000Y21811000D01*
X56891000Y21779000D01*
X56867000Y21753000D01*
X56840000Y21742000D01*
X56808000Y21753000D01*
X56781000Y21784000D01*
X56765000Y21832000D01*
X56761000Y21885000D01*
X56769000Y21954000D01*
X56781000Y21991000D01*
X56801000Y22028000D01*
X56828000Y22055000D01*
X56856000Y22060000D01*
X56883000Y22049000D01*
X56903000Y22023000D01*
G01X56521000Y22378000D02*
X56490000Y22383000D01*
X56462000Y22404000D01*
X56438000Y22436000D01*
X56423000Y22473000D01*
X56415000Y22516000D01*
Y22558000D01*
X56423000Y22601000D01*
X56438000Y22638000D01*
X56462000Y22669000D01*
X56490000Y22691000D01*
X56521000Y22696000D01*
X56552000Y22691000D01*
X56580000Y22669000D01*
X56604000Y22638000D01*
X56619000Y22601000D01*
X56627000Y22558000D01*
Y22516000D01*
X56619000Y22473000D01*
X56604000Y22436000D01*
X56580000Y22404000D01*
X56552000Y22383000D01*
X56521000Y22378000D01*
G01X56552000Y22463000D02*
X56600000Y22378000D01*
G01X56836000Y22696000D02*
Y22378000D01*
G01X56746000Y22696000D02*
X56926000D01*
G01X57151000Y22378000D02*
Y22521000D01*
X57072000Y22696000D01*
G01X57230000D02*
X57151000Y22521000D01*
M02*
